<svg xmlns="http://www.w3.org/2000/svg" style="background: transparent; background-color: transparent;" xmlns:xlink="http://www.w3.org/1999/xlink" version="1.1" width="1002px" height="672px" viewBox="0 0 1002 672"><defs></defs><g><g data-cell-id="0"><g data-cell-id="1"><g data-cell-id="3a9f3e204087adf2-1"><g><rect x="41" y="101" width="30" height="60" rx="2" ry="2" fill="#cccccc" stroke="#6881b3" stroke-width="2" pointer-events="all" style="fill: light-dark(rgb(204, 204, 204), rgb(62, 62, 62)); stroke: light-dark(rgb(104, 129, 179), rgb(107, 129, 172));"></rect><path d="M 41 111 L 71 111 M 41 131 L 71 131" fill="none" stroke="#6881b3" stroke-width="2" stroke-linejoin="round" stroke-miterlimit="10" pointer-events="all" style="stroke: light-dark(rgb(104, 129, 179), rgb(107, 129, 172));"></path><rect x="61" y="106" width="80" height="45" fill="#cccccc" stroke="#6881b3" stroke-width="2" pointer-events="all" style="fill: light-dark(rgb(204, 204, 204), rgb(62, 62, 62)); stroke: light-dark(rgb(104, 129, 179), rgb(107, 129, 172));"></rect><rect x="91" y="151" width="20" height="10" fill="#cccccc" stroke="#6881b3" stroke-width="2" pointer-events="all" style="fill: light-dark(rgb(204, 204, 204), rgb(62, 62, 62)); stroke: light-dark(rgb(104, 129, 179), rgb(107, 129, 172));"></rect><path d="M 76 160 L 126 160 L 136 171 L 66 171 Z" fill="#cccccc" stroke="#6881b3" stroke-width="2" stroke-linejoin="round" stroke-miterlimit="10" pointer-events="all" style="fill: light-dark(rgb(204, 204, 204), rgb(62, 62, 62)); stroke: light-dark(rgb(104, 129, 179), rgb(107, 129, 172));"></path><path d="M 90 168.5 L 108 168.5 M 77 165.5 L 116 165.5 M 79 162.5 L 115 162.5 M 118 162.5 L 125 162.5 M 120 165.5 L 127 165.5 M 122 168.5 L 129 168.5" fill="none" stroke="#6881b3" stroke-width="2" stroke-linejoin="round" stroke-miterlimit="10" pointer-events="all" style="stroke: light-dark(rgb(104, 129, 179), rgb(107, 129, 172));"></path><rect x="64" y="109" width="73" height="39" fill="#ffffff" stroke="none" pointer-events="all" style="fill: light-dark(rgb(255, 255, 255), rgb(18, 18, 18));"></rect><ellipse cx="46" cy="136" rx="2" ry="2" fill="#ffffff" stroke="none" pointer-events="all" style="fill: light-dark(rgb(255, 255, 255), rgb(18, 18, 18));"></ellipse></g></g><g data-cell-id="3a9f3e204087adf2-2"><g><rect x="201" y="101" width="30" height="60" rx="2" ry="2" fill="#cccccc" stroke="#6881b3" stroke-width="2" pointer-events="all" style="fill: light-dark(rgb(204, 204, 204), rgb(62, 62, 62)); stroke: light-dark(rgb(104, 129, 179), rgb(107, 129, 172));"></rect><path d="M 201 111 L 231 111 M 201 131 L 231 131" fill="none" stroke="#6881b3" stroke-width="2" stroke-linejoin="round" stroke-miterlimit="10" pointer-events="all" style="stroke: light-dark(rgb(104, 129, 179), rgb(107, 129, 172));"></path><rect x="221" y="106" width="80" height="45" fill="#cccccc" stroke="#6881b3" stroke-width="2" pointer-events="all" style="fill: light-dark(rgb(204, 204, 204), rgb(62, 62, 62)); stroke: light-dark(rgb(104, 129, 179), rgb(107, 129, 172));"></rect><rect x="251" y="151" width="20" height="10" fill="#cccccc" stroke="#6881b3" stroke-width="2" pointer-events="all" style="fill: light-dark(rgb(204, 204, 204), rgb(62, 62, 62)); stroke: light-dark(rgb(104, 129, 179), rgb(107, 129, 172));"></rect><path d="M 236 160 L 286 160 L 296 171 L 226 171 Z" fill="#cccccc" stroke="#6881b3" stroke-width="2" stroke-linejoin="round" stroke-miterlimit="10" pointer-events="all" style="fill: light-dark(rgb(204, 204, 204), rgb(62, 62, 62)); stroke: light-dark(rgb(104, 129, 179), rgb(107, 129, 172));"></path><path d="M 250 168.5 L 268 168.5 M 237 165.5 L 276 165.5 M 239 162.5 L 275 162.5 M 278 162.5 L 285 162.5 M 280 165.5 L 287 165.5 M 282 168.5 L 289 168.5" fill="none" stroke="#6881b3" stroke-width="2" stroke-linejoin="round" stroke-miterlimit="10" pointer-events="all" style="stroke: light-dark(rgb(104, 129, 179), rgb(107, 129, 172));"></path><rect x="224" y="109" width="73" height="39" fill="#ffffff" stroke="none" pointer-events="all" style="fill: light-dark(rgb(255, 255, 255), rgb(18, 18, 18));"></rect><ellipse cx="206" cy="136" rx="2" ry="2" fill="#ffffff" stroke="none" pointer-events="all" style="fill: light-dark(rgb(255, 255, 255), rgb(18, 18, 18));"></ellipse></g></g><g data-cell-id="3a9f3e204087adf2-3"><g><rect x="381" y="101" width="30" height="60" rx="2" ry="2" fill="#cccccc" stroke="#6881b3" stroke-width="2" pointer-events="all" style="fill: light-dark(rgb(204, 204, 204), rgb(62, 62, 62)); stroke: light-dark(rgb(104, 129, 179), rgb(107, 129, 172));"></rect><path d="M 381 111 L 411 111 M 381 131 L 411 131" fill="none" stroke="#6881b3" stroke-width="2" stroke-linejoin="round" stroke-miterlimit="10" pointer-events="all" style="stroke: light-dark(rgb(104, 129, 179), rgb(107, 129, 172));"></path><rect x="401" y="106" width="80" height="45" fill="#cccccc" stroke="#6881b3" stroke-width="2" pointer-events="all" style="fill: light-dark(rgb(204, 204, 204), rgb(62, 62, 62)); stroke: light-dark(rgb(104, 129, 179), rgb(107, 129, 172));"></rect><rect x="431" y="151" width="20" height="10" fill="#cccccc" stroke="#6881b3" stroke-width="2" pointer-events="all" style="fill: light-dark(rgb(204, 204, 204), rgb(62, 62, 62)); stroke: light-dark(rgb(104, 129, 179), rgb(107, 129, 172));"></rect><path d="M 416 160 L 466 160 L 476 171 L 406 171 Z" fill="#cccccc" stroke="#6881b3" stroke-width="2" stroke-linejoin="round" stroke-miterlimit="10" pointer-events="all" style="fill: light-dark(rgb(204, 204, 204), rgb(62, 62, 62)); stroke: light-dark(rgb(104, 129, 179), rgb(107, 129, 172));"></path><path d="M 430 168.5 L 448 168.5 M 417 165.5 L 456 165.5 M 419 162.5 L 455 162.5 M 458 162.5 L 465 162.5 M 460 165.5 L 467 165.5 M 462 168.5 L 469 168.5" fill="none" stroke="#6881b3" stroke-width="2" stroke-linejoin="round" stroke-miterlimit="10" pointer-events="all" style="stroke: light-dark(rgb(104, 129, 179), rgb(107, 129, 172));"></path><rect x="404" y="109" width="73" height="39" fill="#ffffff" stroke="none" pointer-events="all" style="fill: light-dark(rgb(255, 255, 255), rgb(18, 18, 18));"></rect><ellipse cx="386" cy="136" rx="2" ry="2" fill="#ffffff" stroke="none" pointer-events="all" style="fill: light-dark(rgb(255, 255, 255), rgb(18, 18, 18));"></ellipse></g></g><g data-cell-id="3a9f3e204087adf2-4"><g><rect x="201" y="301" width="100" height="25.86" rx="5.17" ry="5.17" fill="#cccccc" stroke="#6881b3" stroke-width="2" pointer-events="all" style="fill: light-dark(rgb(204, 204, 204), rgb(62, 62, 62)); stroke: light-dark(rgb(104, 129, 179), rgb(107, 129, 172));"></rect><rect x="211" y="326.86" width="80" height="4.14" fill="#cccccc" stroke="#6881b3" stroke-width="2" pointer-events="all" style="fill: light-dark(rgb(204, 204, 204), rgb(62, 62, 62)); stroke: light-dark(rgb(104, 129, 179), rgb(107, 129, 172));"></rect><ellipse cx="289" cy="313.93" rx="8" ry="8.275862068965518" fill="#ffffff" stroke="none" pointer-events="all" style="fill: light-dark(rgb(255, 255, 255), rgb(18, 18, 18));"></ellipse><ellipse cx="276" cy="306.17" rx="2" ry="2.0689655172413794" fill="#ffffff" stroke="none" pointer-events="all" style="fill: light-dark(rgb(255, 255, 255), rgb(18, 18, 18));"></ellipse><ellipse cx="276" cy="321.69" rx="2" ry="2.0689655172413794" fill="#ffffff" stroke="none" pointer-events="all" style="fill: light-dark(rgb(255, 255, 255), rgb(18, 18, 18));"></ellipse><ellipse cx="276" cy="313.93" rx="2" ry="2.0689655172413794" fill="#ffffff" stroke="none" pointer-events="all" style="fill: light-dark(rgb(255, 255, 255), rgb(18, 18, 18));"></ellipse><ellipse cx="266.5" cy="318.59" rx="2" ry="2.0689655172413794" fill="#ffffff" stroke="none" pointer-events="all" style="fill: light-dark(rgb(255, 255, 255), rgb(18, 18, 18));"></ellipse><ellipse cx="258" cy="318.59" rx="2" ry="2.0689655172413794" fill="#ffffff" stroke="none" pointer-events="all" style="fill: light-dark(rgb(255, 255, 255), rgb(18, 18, 18));"></ellipse><ellipse cx="249.5" cy="318.59" rx="2" ry="2.0689655172413794" fill="#ffffff" stroke="none" pointer-events="all" style="fill: light-dark(rgb(255, 255, 255), rgb(18, 18, 18));"></ellipse><ellipse cx="241" cy="318.59" rx="2" ry="2.0689655172413794" fill="#ffffff" stroke="none" pointer-events="all" style="fill: light-dark(rgb(255, 255, 255), rgb(18, 18, 18));"></ellipse><ellipse cx="232.5" cy="318.59" rx="2" ry="2.0689655172413794" fill="#ffffff" stroke="none" pointer-events="all" style="fill: light-dark(rgb(255, 255, 255), rgb(18, 18, 18));"></ellipse><ellipse cx="224" cy="318.59" rx="2" ry="2.0689655172413794" fill="#ffffff" stroke="none" pointer-events="all" style="fill: light-dark(rgb(255, 255, 255), rgb(18, 18, 18));"></ellipse><ellipse cx="215.5" cy="318.59" rx="2" ry="2.0689655172413794" fill="#ffffff" stroke="none" pointer-events="all" style="fill: light-dark(rgb(255, 255, 255), rgb(18, 18, 18));"></ellipse><ellipse cx="207" cy="318.59" rx="2" ry="2.0689655172413794" fill="#ffffff" stroke="none" pointer-events="all" style="fill: light-dark(rgb(255, 255, 255), rgb(18, 18, 18));"></ellipse><path d="M 204 308.24 L 210 308.24 L 210 311.34 L 208 311.34 L 208 312.38 L 206 312.38 L 206 311.34 L 204 311.34 Z M 212.5 308.24 L 218.5 308.24 L 218.5 311.34 L 216.5 311.34 L 216.5 312.38 L 214.5 312.38 L 214.5 311.34 L 212.5 311.34 Z M 221 308.24 L 227 308.24 L 227 311.34 L 225 311.34 L 225 312.38 L 223 312.38 L 223 311.34 L 221 311.34 Z M 229.5 308.24 L 235.5 308.24 L 235.5 311.34 L 233.5 311.34 L 233.5 312.38 L 231.5 312.38 L 231.5 311.34 L 229.5 311.34 Z M 238 308.24 L 244 308.24 L 244 311.34 L 242 311.34 L 242 312.38 L 240 312.38 L 240 311.34 L 238 311.34 Z M 246.5 308.24 L 252.5 308.24 L 252.5 311.34 L 250.5 311.34 L 250.5 312.38 L 248.5 312.38 L 248.5 311.34 L 246.5 311.34 Z M 255 308.24 L 261 308.24 L 261 311.34 L 259 311.34 L 259 312.38 L 257 312.38 L 257 311.34 L 255 311.34 Z M 263.5 308.24 L 269.5 308.24 L 269.5 311.34 L 267.5 311.34 L 267.5 312.38 L 265.5 312.38 L 265.5 311.34 L 263.5 311.34 Z" fill="#ffffff" stroke="none" pointer-events="all" style="fill: light-dark(rgb(255, 255, 255), rgb(18, 18, 18));"></path><path d="M 283 310.31 L 285 308.24 L 287 310.31 M 283 317.55 L 285 319.62 L 287 317.55 M 291 310.31 L 293 308.24 L 295 310.31 M 291 317.55 L 293 319.62 L 295 317.55 M 293 319.62 L 293 316.52 L 285 311.34 L 285 308.24 M 285 319.62 L 285 316.52 L 293 311.34 L 293 308.24" fill="none" stroke="#6881b3" stroke-miterlimit="10" pointer-events="all" style="stroke: light-dark(rgb(104, 129, 179), rgb(107, 129, 172));"></path></g></g><g data-cell-id="3a9f3e204087adf2-5"><g><rect x="1" y="531" width="30" height="60" rx="2" ry="2" fill="#cccccc" stroke="#6881b3" stroke-width="2" pointer-events="all" style="fill: light-dark(rgb(204, 204, 204), rgb(62, 62, 62)); stroke: light-dark(rgb(104, 129, 179), rgb(107, 129, 172));"></rect><path d="M 1 541 L 31 541 M 1 561 L 31 561" fill="none" stroke="#6881b3" stroke-width="2" stroke-linejoin="round" stroke-miterlimit="10" pointer-events="all" style="stroke: light-dark(rgb(104, 129, 179), rgb(107, 129, 172));"></path><rect x="21" y="536" width="80" height="45" fill="#cccccc" stroke="#6881b3" stroke-width="2" pointer-events="all" style="fill: light-dark(rgb(204, 204, 204), rgb(62, 62, 62)); stroke: light-dark(rgb(104, 129, 179), rgb(107, 129, 172));"></rect><rect x="51" y="581" width="20" height="10" fill="#cccccc" stroke="#6881b3" stroke-width="2" pointer-events="all" style="fill: light-dark(rgb(204, 204, 204), rgb(62, 62, 62)); stroke: light-dark(rgb(104, 129, 179), rgb(107, 129, 172));"></rect><path d="M 36 590 L 86 590 L 96 601 L 26 601 Z" fill="#cccccc" stroke="#6881b3" stroke-width="2" stroke-linejoin="round" stroke-miterlimit="10" pointer-events="all" style="fill: light-dark(rgb(204, 204, 204), rgb(62, 62, 62)); stroke: light-dark(rgb(104, 129, 179), rgb(107, 129, 172));"></path><path d="M 50 598.5 L 68 598.5 M 37 595.5 L 76 595.5 M 39 592.5 L 75 592.5 M 78 592.5 L 85 592.5 M 80 595.5 L 87 595.5 M 82 598.5 L 89 598.5" fill="none" stroke="#6881b3" stroke-width="2" stroke-linejoin="round" stroke-miterlimit="10" pointer-events="all" style="stroke: light-dark(rgb(104, 129, 179), rgb(107, 129, 172));"></path><rect x="24" y="539" width="73" height="39" fill="#ffffff" stroke="none" pointer-events="all" style="fill: light-dark(rgb(255, 255, 255), rgb(18, 18, 18));"></rect><ellipse cx="6" cy="566" rx="2" ry="2" fill="#ffffff" stroke="none" pointer-events="all" style="fill: light-dark(rgb(255, 255, 255), rgb(18, 18, 18));"></ellipse></g></g><g data-cell-id="3a9f3e204087adf2-6"><g><rect x="141" y="601" width="30" height="60" rx="2" ry="2" fill="#cccccc" stroke="#6881b3" stroke-width="2" pointer-events="all" style="fill: light-dark(rgb(204, 204, 204), rgb(62, 62, 62)); stroke: light-dark(rgb(104, 129, 179), rgb(107, 129, 172));"></rect><path d="M 141 611 L 171 611 M 141 631 L 171 631" fill="none" stroke="#6881b3" stroke-width="2" stroke-linejoin="round" stroke-miterlimit="10" pointer-events="all" style="stroke: light-dark(rgb(104, 129, 179), rgb(107, 129, 172));"></path><rect x="161" y="606" width="80" height="45" fill="#cccccc" stroke="#6881b3" stroke-width="2" pointer-events="all" style="fill: light-dark(rgb(204, 204, 204), rgb(62, 62, 62)); stroke: light-dark(rgb(104, 129, 179), rgb(107, 129, 172));"></rect><rect x="191" y="651" width="20" height="10" fill="#cccccc" stroke="#6881b3" stroke-width="2" pointer-events="all" style="fill: light-dark(rgb(204, 204, 204), rgb(62, 62, 62)); stroke: light-dark(rgb(104, 129, 179), rgb(107, 129, 172));"></rect><path d="M 176 660 L 226 660 L 236 671 L 166 671 Z" fill="#cccccc" stroke="#6881b3" stroke-width="2" stroke-linejoin="round" stroke-miterlimit="10" pointer-events="all" style="fill: light-dark(rgb(204, 204, 204), rgb(62, 62, 62)); stroke: light-dark(rgb(104, 129, 179), rgb(107, 129, 172));"></path><path d="M 190 668.5 L 208 668.5 M 177 665.5 L 216 665.5 M 179 662.5 L 215 662.5 M 218 662.5 L 225 662.5 M 220 665.5 L 227 665.5 M 222 668.5 L 229 668.5" fill="none" stroke="#6881b3" stroke-width="2" stroke-linejoin="round" stroke-miterlimit="10" pointer-events="all" style="stroke: light-dark(rgb(104, 129, 179), rgb(107, 129, 172));"></path><rect x="164" y="609" width="73" height="39" fill="#ffffff" stroke="none" pointer-events="all" style="fill: light-dark(rgb(255, 255, 255), rgb(18, 18, 18));"></rect><ellipse cx="146" cy="636" rx="2" ry="2" fill="#ffffff" stroke="none" pointer-events="all" style="fill: light-dark(rgb(255, 255, 255), rgb(18, 18, 18));"></ellipse></g></g><g data-cell-id="3a9f3e204087adf2-8"><g><rect x="611" y="356" width="90" height="15" rx="2" ry="2" fill="#cccccc" stroke="#6881b3" stroke-width="2" pointer-events="all" style="fill: light-dark(rgb(204, 204, 204), rgb(62, 62, 62)); stroke: light-dark(rgb(104, 129, 179), rgb(107, 129, 172));"></rect><rect x="611" y="338.5" width="90" height="15" rx="2" ry="2" fill="#cccccc" stroke="#6881b3" stroke-width="2" pointer-events="all" style="fill: light-dark(rgb(204, 204, 204), rgb(62, 62, 62)); stroke: light-dark(rgb(104, 129, 179), rgb(107, 129, 172));"></rect><rect x="611" y="321" width="90" height="15" rx="2" ry="2" fill="#cccccc" stroke="#6881b3" stroke-width="2" pointer-events="all" style="fill: light-dark(rgb(204, 204, 204), rgb(62, 62, 62)); stroke: light-dark(rgb(104, 129, 179), rgb(107, 129, 172));"></rect><rect x="611" y="303.5" width="90" height="15" rx="2" ry="2" fill="#cccccc" stroke="#6881b3" stroke-width="2" pointer-events="all" style="fill: light-dark(rgb(204, 204, 204), rgb(62, 62, 62)); stroke: light-dark(rgb(104, 129, 179), rgb(107, 129, 172));"></rect><rect x="611" y="286" width="90" height="15" rx="2" ry="2" fill="#cccccc" stroke="#6881b3" stroke-width="2" pointer-events="all" style="fill: light-dark(rgb(204, 204, 204), rgb(62, 62, 62)); stroke: light-dark(rgb(104, 129, 179), rgb(107, 129, 172));"></rect><path d="M 615 284 L 636 271 L 676 271 L 697 284 Z" fill="#cccccc" stroke="#6881b3" stroke-width="2" stroke-miterlimit="10" pointer-events="all" style="fill: light-dark(rgb(204, 204, 204), rgb(62, 62, 62)); stroke: light-dark(rgb(104, 129, 179), rgb(107, 129, 172));"></path><ellipse cx="693" cy="363.5" rx="4" ry="4" fill="#ffffff" stroke="none" pointer-events="all" style="fill: light-dark(rgb(255, 255, 255), rgb(18, 18, 18));"></ellipse><ellipse cx="692.67" cy="346" rx="4" ry="4" fill="#ffffff" stroke="none" pointer-events="all" style="fill: light-dark(rgb(255, 255, 255), rgb(18, 18, 18));"></ellipse><ellipse cx="693" cy="328.5" rx="4" ry="4" fill="#ffffff" stroke="none" pointer-events="all" style="fill: light-dark(rgb(255, 255, 255), rgb(18, 18, 18));"></ellipse><ellipse cx="693" cy="311" rx="4" ry="4" fill="#ffffff" stroke="none" pointer-events="all" style="fill: light-dark(rgb(255, 255, 255), rgb(18, 18, 18));"></ellipse><ellipse cx="693" cy="293.5" rx="4" ry="4" fill="#ffffff" stroke="none" pointer-events="all" style="fill: light-dark(rgb(255, 255, 255), rgb(18, 18, 18));"></ellipse><path d="M 616 369 L 621 358 L 626 358 L 621 369 Z M 626 369 L 631 358 L 636 358 L 631 369 Z M 636 369 L 641 358 L 646 358 L 641 369 Z M 646 369 L 651 358 L 656 358 L 651 369 Z M 656 369 L 661 358 L 666 358 L 661 369 Z M 666 369 L 671 358 L 676 358 L 671 369 Z M 616 351.5 L 621 340.5 L 626 340.5 L 621 351.5 Z M 626 351.5 L 631 340.5 L 636 340.5 L 631 351.5 Z M 636 351.5 L 641 340.5 L 646 340.5 L 641 351.5 Z M 646 351.5 L 651 340.5 L 656 340.5 L 651 351.5 Z M 656 351.5 L 661 340.5 L 666 340.5 L 661 351.5 Z M 666 351.5 L 671 340.5 L 676 340.5 L 671 351.5 Z M 616 334 L 621 323 L 626 323 L 621 334 Z M 626 334 L 631 323 L 636 323 L 631 334 Z M 636 334 L 640.5 323 L 645.5 323 L 640.5 334 Z M 646 334 L 651 323 L 656 323 L 651 334 Z M 656 334 L 661 323 L 666 323 L 661 334 Z M 666 334 L 671 323 L 676 323 L 671 334 Z M 616 316.5 L 621 305.5 L 626 305.5 L 621 316.5 Z M 626 316.5 L 631 305.5 L 636 305.5 L 631 316.5 Z M 636 316.5 L 641 305.5 L 646 305.5 L 641 316.5 Z M 646 316.5 L 651 305.5 L 656 305.5 L 651 316.5 Z M 656 316.5 L 661 305.5 L 666 305.5 L 661 316.5 Z M 666 316.5 L 671 305.5 L 676 305.5 L 671 316.5 Z M 616 299 L 621 288 L 626 288 L 621 299 Z M 626 299 L 631 288 L 636 288 L 631 299 Z M 636 299 L 641 288 L 646 288 L 641 299 Z M 646 299 L 651 288 L 656 288 L 651 299 Z M 656 299 L 661 288 L 666 288 L 661 299 Z M 666 299 L 671 288 L 676 288 L 671 299 Z" fill="#ffffff" stroke="none" pointer-events="all" style="fill: light-dark(rgb(255, 255, 255), rgb(18, 18, 18));"></path></g></g><g data-cell-id="3a9f3e204087adf2-9"><g><rect x="831" y="271" width="10.5" height="8" fill="#cccccc" stroke="#6881b3" stroke-width="2" pointer-events="all" style="fill: light-dark(rgb(204, 204, 204), rgb(62, 62, 62)); stroke: light-dark(rgb(104, 129, 179), rgb(107, 129, 172));"></rect><rect x="844.3" y="271" width="23" height="8" fill="#cccccc" stroke="#6881b3" stroke-width="2" pointer-events="all" style="fill: light-dark(rgb(204, 204, 204), rgb(62, 62, 62)); stroke: light-dark(rgb(104, 129, 179), rgb(107, 129, 172));"></rect><rect x="869.5" y="271" width="23" height="8" fill="#cccccc" stroke="#6881b3" stroke-width="2" pointer-events="all" style="fill: light-dark(rgb(204, 204, 204), rgb(62, 62, 62)); stroke: light-dark(rgb(104, 129, 179), rgb(107, 129, 172));"></rect><rect x="895.3" y="271" width="23" height="8" fill="#cccccc" stroke="#6881b3" stroke-width="2" pointer-events="all" style="fill: light-dark(rgb(204, 204, 204), rgb(62, 62, 62)); stroke: light-dark(rgb(104, 129, 179), rgb(107, 129, 172));"></rect><rect x="920.5" y="271" width="10.5" height="8" fill="#cccccc" stroke="#6881b3" stroke-width="2" pointer-events="all" style="fill: light-dark(rgb(204, 204, 204), rgb(62, 62, 62)); stroke: light-dark(rgb(104, 129, 179), rgb(107, 129, 172));"></rect><rect x="831" y="281.25" width="23" height="8" fill="#cccccc" stroke="#6881b3" stroke-width="2" pointer-events="all" style="fill: light-dark(rgb(204, 204, 204), rgb(62, 62, 62)); stroke: light-dark(rgb(104, 129, 179), rgb(107, 129, 172));"></rect><rect x="856.7" y="281.25" width="23" height="8" fill="#cccccc" stroke="#6881b3" stroke-width="2" pointer-events="all" style="fill: light-dark(rgb(204, 204, 204), rgb(62, 62, 62)); stroke: light-dark(rgb(104, 129, 179), rgb(107, 129, 172));"></rect><rect x="882.4" y="281.25" width="23" height="8" fill="#cccccc" stroke="#6881b3" stroke-width="2" pointer-events="all" style="fill: light-dark(rgb(204, 204, 204), rgb(62, 62, 62)); stroke: light-dark(rgb(104, 129, 179), rgb(107, 129, 172));"></rect><rect x="908" y="281.25" width="23" height="8" fill="#cccccc" stroke="#6881b3" stroke-width="2" pointer-events="all" style="fill: light-dark(rgb(204, 204, 204), rgb(62, 62, 62)); stroke: light-dark(rgb(104, 129, 179), rgb(107, 129, 172));"></rect><rect x="831" y="291.5" width="10.5" height="8" fill="#cccccc" stroke="#6881b3" stroke-width="2" pointer-events="all" style="fill: light-dark(rgb(204, 204, 204), rgb(62, 62, 62)); stroke: light-dark(rgb(104, 129, 179), rgb(107, 129, 172));"></rect><rect x="844.3" y="291.5" width="23" height="8" fill="#cccccc" stroke="#6881b3" stroke-width="2" pointer-events="all" style="fill: light-dark(rgb(204, 204, 204), rgb(62, 62, 62)); stroke: light-dark(rgb(104, 129, 179), rgb(107, 129, 172));"></rect><rect x="869.5" y="291.5" width="23" height="8" fill="#cccccc" stroke="#6881b3" stroke-width="2" pointer-events="all" style="fill: light-dark(rgb(204, 204, 204), rgb(62, 62, 62)); stroke: light-dark(rgb(104, 129, 179), rgb(107, 129, 172));"></rect><rect x="895.3" y="291.5" width="23" height="8" fill="#cccccc" stroke="#6881b3" stroke-width="2" pointer-events="all" style="fill: light-dark(rgb(204, 204, 204), rgb(62, 62, 62)); stroke: light-dark(rgb(104, 129, 179), rgb(107, 129, 172));"></rect><rect x="920.5" y="291.5" width="10.5" height="8" fill="#cccccc" stroke="#6881b3" stroke-width="2" pointer-events="all" style="fill: light-dark(rgb(204, 204, 204), rgb(62, 62, 62)); stroke: light-dark(rgb(104, 129, 179), rgb(107, 129, 172));"></rect><rect x="831" y="301.75" width="23" height="8" fill="#cccccc" stroke="#6881b3" stroke-width="2" pointer-events="all" style="fill: light-dark(rgb(204, 204, 204), rgb(62, 62, 62)); stroke: light-dark(rgb(104, 129, 179), rgb(107, 129, 172));"></rect><rect x="856.7" y="301.75" width="23" height="8" fill="#cccccc" stroke="#6881b3" stroke-width="2" pointer-events="all" style="fill: light-dark(rgb(204, 204, 204), rgb(62, 62, 62)); stroke: light-dark(rgb(104, 129, 179), rgb(107, 129, 172));"></rect><rect x="882.4" y="301.75" width="23" height="8" fill="#cccccc" stroke="#6881b3" stroke-width="2" pointer-events="all" style="fill: light-dark(rgb(204, 204, 204), rgb(62, 62, 62)); stroke: light-dark(rgb(104, 129, 179), rgb(107, 129, 172));"></rect><rect x="908" y="301.75" width="23" height="8" fill="#cccccc" stroke="#6881b3" stroke-width="2" pointer-events="all" style="fill: light-dark(rgb(204, 204, 204), rgb(62, 62, 62)); stroke: light-dark(rgb(104, 129, 179), rgb(107, 129, 172));"></rect><rect x="831" y="312" width="10.5" height="8" fill="#cccccc" stroke="#6881b3" stroke-width="2" pointer-events="all" style="fill: light-dark(rgb(204, 204, 204), rgb(62, 62, 62)); stroke: light-dark(rgb(104, 129, 179), rgb(107, 129, 172));"></rect><rect x="844.3" y="312" width="23" height="8" fill="#cccccc" stroke="#6881b3" stroke-width="2" pointer-events="all" style="fill: light-dark(rgb(204, 204, 204), rgb(62, 62, 62)); stroke: light-dark(rgb(104, 129, 179), rgb(107, 129, 172));"></rect><rect x="870" y="312" width="23" height="8" fill="#cccccc" stroke="#6881b3" stroke-width="2" pointer-events="all" style="fill: light-dark(rgb(204, 204, 204), rgb(62, 62, 62)); stroke: light-dark(rgb(104, 129, 179), rgb(107, 129, 172));"></rect><rect x="895.3" y="312" width="23" height="8" fill="#cccccc" stroke="#6881b3" stroke-width="2" pointer-events="all" style="fill: light-dark(rgb(204, 204, 204), rgb(62, 62, 62)); stroke: light-dark(rgb(104, 129, 179), rgb(107, 129, 172));"></rect><rect x="920.5" y="312" width="10.5" height="8" fill="#cccccc" stroke="#6881b3" stroke-width="2" pointer-events="all" style="fill: light-dark(rgb(204, 204, 204), rgb(62, 62, 62)); stroke: light-dark(rgb(104, 129, 179), rgb(107, 129, 172));"></rect><rect x="831" y="322.5" width="23" height="8" fill="#cccccc" stroke="#6881b3" stroke-width="2" pointer-events="all" style="fill: light-dark(rgb(204, 204, 204), rgb(62, 62, 62)); stroke: light-dark(rgb(104, 129, 179), rgb(107, 129, 172));"></rect><rect x="856.7" y="322.5" width="23" height="8" fill="#cccccc" stroke="#6881b3" stroke-width="2" pointer-events="all" style="fill: light-dark(rgb(204, 204, 204), rgb(62, 62, 62)); stroke: light-dark(rgb(104, 129, 179), rgb(107, 129, 172));"></rect><rect x="882.4" y="322.5" width="23" height="8" fill="#cccccc" stroke="#6881b3" stroke-width="2" pointer-events="all" style="fill: light-dark(rgb(204, 204, 204), rgb(62, 62, 62)); stroke: light-dark(rgb(104, 129, 179), rgb(107, 129, 172));"></rect><rect x="908" y="322.5" width="23" height="8" fill="#cccccc" stroke="#6881b3" stroke-width="2" pointer-events="all" style="fill: light-dark(rgb(204, 204, 204), rgb(62, 62, 62)); stroke: light-dark(rgb(104, 129, 179), rgb(107, 129, 172));"></rect><rect x="831" y="332.75" width="10.5" height="8" fill="#cccccc" stroke="#6881b3" stroke-width="2" pointer-events="all" style="fill: light-dark(rgb(204, 204, 204), rgb(62, 62, 62)); stroke: light-dark(rgb(104, 129, 179), rgb(107, 129, 172));"></rect><rect x="844.3" y="332.75" width="23" height="8" fill="#cccccc" stroke="#6881b3" stroke-width="2" pointer-events="all" style="fill: light-dark(rgb(204, 204, 204), rgb(62, 62, 62)); stroke: light-dark(rgb(104, 129, 179), rgb(107, 129, 172));"></rect><rect x="870" y="332.75" width="23" height="8" fill="#cccccc" stroke="#6881b3" stroke-width="2" pointer-events="all" style="fill: light-dark(rgb(204, 204, 204), rgb(62, 62, 62)); stroke: light-dark(rgb(104, 129, 179), rgb(107, 129, 172));"></rect><rect x="895.3" y="332.75" width="23" height="8" fill="#cccccc" stroke="#6881b3" stroke-width="2" pointer-events="all" style="fill: light-dark(rgb(204, 204, 204), rgb(62, 62, 62)); stroke: light-dark(rgb(104, 129, 179), rgb(107, 129, 172));"></rect><rect x="920.5" y="332.75" width="10.5" height="8" fill="#cccccc" stroke="#6881b3" stroke-width="2" pointer-events="all" style="fill: light-dark(rgb(204, 204, 204), rgb(62, 62, 62)); stroke: light-dark(rgb(104, 129, 179), rgb(107, 129, 172));"></rect><rect x="831" y="343" width="23" height="8" fill="#cccccc" stroke="#6881b3" stroke-width="2" pointer-events="all" style="fill: light-dark(rgb(204, 204, 204), rgb(62, 62, 62)); stroke: light-dark(rgb(104, 129, 179), rgb(107, 129, 172));"></rect><rect x="856.7" y="343" width="23" height="8" fill="#cccccc" stroke="#6881b3" stroke-width="2" pointer-events="all" style="fill: light-dark(rgb(204, 204, 204), rgb(62, 62, 62)); stroke: light-dark(rgb(104, 129, 179), rgb(107, 129, 172));"></rect><rect x="882.4" y="343" width="23" height="8" fill="#cccccc" stroke="#6881b3" stroke-width="2" pointer-events="all" style="fill: light-dark(rgb(204, 204, 204), rgb(62, 62, 62)); stroke: light-dark(rgb(104, 129, 179), rgb(107, 129, 172));"></rect><rect x="908" y="343" width="23" height="8" fill="#cccccc" stroke="#6881b3" stroke-width="2" pointer-events="all" style="fill: light-dark(rgb(204, 204, 204), rgb(62, 62, 62)); stroke: light-dark(rgb(104, 129, 179), rgb(107, 129, 172));"></rect><rect x="831" y="353" width="10.5" height="8" fill="#cccccc" stroke="#6881b3" stroke-width="2" pointer-events="all" style="fill: light-dark(rgb(204, 204, 204), rgb(62, 62, 62)); stroke: light-dark(rgb(104, 129, 179), rgb(107, 129, 172));"></rect><rect x="844.3" y="353" width="23" height="8" fill="#cccccc" stroke="#6881b3" stroke-width="2" pointer-events="all" style="fill: light-dark(rgb(204, 204, 204), rgb(62, 62, 62)); stroke: light-dark(rgb(104, 129, 179), rgb(107, 129, 172));"></rect><rect x="869.5" y="353" width="23" height="8" fill="#cccccc" stroke="#6881b3" stroke-width="2" pointer-events="all" style="fill: light-dark(rgb(204, 204, 204), rgb(62, 62, 62)); stroke: light-dark(rgb(104, 129, 179), rgb(107, 129, 172));"></rect><rect x="895.3" y="353" width="23" height="8" fill="#cccccc" stroke="#6881b3" stroke-width="2" pointer-events="all" style="fill: light-dark(rgb(204, 204, 204), rgb(62, 62, 62)); stroke: light-dark(rgb(104, 129, 179), rgb(107, 129, 172));"></rect><rect x="920.5" y="353" width="10.5" height="8" fill="#cccccc" stroke="#6881b3" stroke-width="2" pointer-events="all" style="fill: light-dark(rgb(204, 204, 204), rgb(62, 62, 62)); stroke: light-dark(rgb(104, 129, 179), rgb(107, 129, 172));"></rect><rect x="831" y="363" width="23" height="8" fill="#cccccc" stroke="#6881b3" stroke-width="2" pointer-events="all" style="fill: light-dark(rgb(204, 204, 204), rgb(62, 62, 62)); stroke: light-dark(rgb(104, 129, 179), rgb(107, 129, 172));"></rect><rect x="856.7" y="363" width="23" height="8" fill="#cccccc" stroke="#6881b3" stroke-width="2" pointer-events="all" style="fill: light-dark(rgb(204, 204, 204), rgb(62, 62, 62)); stroke: light-dark(rgb(104, 129, 179), rgb(107, 129, 172));"></rect><rect x="882.4" y="363" width="23" height="8" fill="#cccccc" stroke="#6881b3" stroke-width="2" pointer-events="all" style="fill: light-dark(rgb(204, 204, 204), rgb(62, 62, 62)); stroke: light-dark(rgb(104, 129, 179), rgb(107, 129, 172));"></rect><rect x="908" y="363" width="23" height="8" fill="#cccccc" stroke="#6881b3" stroke-width="2" pointer-events="all" style="fill: light-dark(rgb(204, 204, 204), rgb(62, 62, 62)); stroke: light-dark(rgb(104, 129, 179), rgb(107, 129, 172));"></rect><path d="M 874.4 352.6 C 874.99 348.25 876.53 344.09 878.9 340.4 C 879.65 339.21 880.32 337.98 880.9 336.7 C 881.62 335.5 881.8 334.04 881.4 332.7 C 882.61 333.88 883.26 335.51 883.2 337.2 C 882.74 340.58 883.15 344.02 884.4 347.2 C 885.66 349.63 887.56 351.67 889.9 353.1 C 895 351.97 899.61 349.28 903.1 345.4 C 906.48 341.5 907.61 336.13 906.1 331.2 C 904.39 326.31 902.11 321.65 899.3 317.3 C 897.67 314.91 896.77 312.09 896.7 309.2 C 897.04 307.94 897.87 306.86 899 306.2 C 897.32 306.17 895.69 306.73 894.4 307.8 C 891.75 310.44 890.18 313.97 890 317.7 C 888.97 314.84 888.83 311.74 889.6 308.8 C 890.57 304.87 890.11 300.72 888.3 297.1 C 887.07 295.21 885.59 293.49 883.9 292 C 882.5 290.89 881.32 289.53 880.4 288 C 880.2 289.91 880.37 291.85 880.9 293.7 C 881.61 296.65 881.18 299.76 879.7 302.4 C 878.69 304.06 877.59 305.67 876.4 307.2 C 874.71 309.72 873.62 312.59 873.2 315.6 C 872.78 312.15 871.77 308.8 870.2 305.7 C 868.73 302.71 866.53 300.13 863.8 298.2 C 864.98 301.11 865.46 304.27 865.2 307.4 C 864.84 310.07 864.16 312.69 863.2 315.2 C 860.83 320.11 859.27 325.38 858.6 330.8 C 858.16 336.15 859.89 341.44 863.4 345.5 C 866.26 348.93 870.1 351.4 874.4 352.6 Z" fill="#ffffff" stroke="#6881b3" stroke-width="2" stroke-miterlimit="10" pointer-events="all" style="fill: light-dark(rgb(255, 255, 255), rgb(18, 18, 18)); stroke: light-dark(rgb(104, 129, 179), rgb(107, 129, 172));"></path></g></g><g data-cell-id="3a9f3e204087adf2-10"><g><path d="M 968.92 141 C 987.65 138.61 1001.02 120.52 998.77 100.6 C 996.53 80.67 979.51 66.46 960.77 68.85 C 960.56 39.09 940.94 13.48 913.57 7.24 C 886.2 1 858.43 15.82 846.77 42.88 C 838.12 32.37 824.4 28.4 811.94 32.82 C 799.49 37.23 790.75 49.16 789.76 63.08 C 769.52 62.28 752.51 79.08 751.76 100.6 C 751.01 122.11 766.81 140.2 787.05 141 Z" fill="#cccccc" stroke="#6881b3" stroke-width="5.43" stroke-miterlimit="10" pointer-events="all" style="fill: light-dark(rgb(204, 204, 204), rgb(62, 62, 62)); stroke: light-dark(rgb(104, 129, 179), rgb(107, 129, 172));"></path></g><g><g><switch><foreignObject style="overflow: visible; text-align: left;" pointer-events="none" width="100%" height="100%" requiredFeatures="http://www.w3.org/TR/SVG11/feature#Extensibility"><div xmlns="http://www.w3.org/1999/xhtml" style="display: flex; align-items: unsafe center; justify-content: unsafe center; width: 1px; height: 1px; padding-top: 71px; margin-left: 876px;"><div style="box-sizing: border-box; font-size: 0; text-align: center; color: #6881B3; "><div style="display: inline-block; font-size: 28px; font-family: Helvetica; color: light-dark(#6881B3, #6b81ac); line-height: 1.2; pointer-events: all; white-space: nowrap; ">Inrternet</div></div></div></foreignObject><text x="876" y="79" fill="#6881B3" font-family="Helvetica" font-size="28px" text-anchor="middle">Inrternet</text></switch></g></g></g><g data-cell-id="3a9f3e204087adf2-11"><g><rect x="201" y="427.2" width="100" height="24.82" rx="4.96" ry="4.96" fill="#cccccc" stroke="#6881b3" stroke-width="1.99" pointer-events="all" style="fill: light-dark(rgb(204, 204, 204), rgb(62, 62, 62)); stroke: light-dark(rgb(104, 129, 179), rgb(107, 129, 172));"></rect><rect x="211" y="452.03" width="80" height="3.97" fill="#cccccc" stroke="#6881b3" stroke-width="1.99" pointer-events="all" style="fill: light-dark(rgb(204, 204, 204), rgb(62, 62, 62)); stroke: light-dark(rgb(104, 129, 179), rgb(107, 129, 172));"></rect><path d="M 268 427.2 L 268.5 382.52 C 268.78 382.1 269.25 381.85 269.75 381.85 C 270.25 381.85 270.72 382.1 271 382.52 L 271.5 427.2 Z" fill="#cccccc" stroke="#6881b3" stroke-width="1.99" stroke-miterlimit="10" pointer-events="all" style="fill: light-dark(rgb(204, 204, 204), rgb(62, 62, 62)); stroke: light-dark(rgb(104, 129, 179), rgb(107, 129, 172));"></path><ellipse cx="289" cy="439.62" rx="8" ry="7.94392523364486" fill="#ffffff" stroke="none" pointer-events="all" style="fill: light-dark(rgb(255, 255, 255), rgb(18, 18, 18));"></ellipse><ellipse cx="276" cy="432.17" rx="2" ry="1.985981308411215" fill="#ffffff" stroke="none" pointer-events="all" style="fill: light-dark(rgb(255, 255, 255), rgb(18, 18, 18));"></ellipse><ellipse cx="276" cy="447.06" rx="2" ry="1.985981308411215" fill="#ffffff" stroke="none" pointer-events="all" style="fill: light-dark(rgb(255, 255, 255), rgb(18, 18, 18));"></ellipse><ellipse cx="276" cy="439.62" rx="2" ry="1.985981308411215" fill="#ffffff" stroke="none" pointer-events="all" style="fill: light-dark(rgb(255, 255, 255), rgb(18, 18, 18));"></ellipse><ellipse cx="266.5" cy="444.08" rx="2" ry="1.985981308411215" fill="#ffffff" stroke="none" pointer-events="all" style="fill: light-dark(rgb(255, 255, 255), rgb(18, 18, 18));"></ellipse><ellipse cx="258" cy="444.08" rx="2" ry="1.985981308411215" fill="#ffffff" stroke="none" pointer-events="all" style="fill: light-dark(rgb(255, 255, 255), rgb(18, 18, 18));"></ellipse><ellipse cx="249.5" cy="444.08" rx="2" ry="1.985981308411215" fill="#ffffff" stroke="none" pointer-events="all" style="fill: light-dark(rgb(255, 255, 255), rgb(18, 18, 18));"></ellipse><ellipse cx="241" cy="444.08" rx="2" ry="1.985981308411215" fill="#ffffff" stroke="none" pointer-events="all" style="fill: light-dark(rgb(255, 255, 255), rgb(18, 18, 18));"></ellipse><ellipse cx="232.5" cy="444.08" rx="2" ry="1.985981308411215" fill="#ffffff" stroke="none" pointer-events="all" style="fill: light-dark(rgb(255, 255, 255), rgb(18, 18, 18));"></ellipse><ellipse cx="224" cy="444.08" rx="2" ry="1.985981308411215" fill="#ffffff" stroke="none" pointer-events="all" style="fill: light-dark(rgb(255, 255, 255), rgb(18, 18, 18));"></ellipse><ellipse cx="215.5" cy="444.08" rx="2" ry="1.985981308411215" fill="#ffffff" stroke="none" pointer-events="all" style="fill: light-dark(rgb(255, 255, 255), rgb(18, 18, 18));"></ellipse><ellipse cx="207" cy="444.08" rx="2" ry="1.985981308411215" fill="#ffffff" stroke="none" pointer-events="all" style="fill: light-dark(rgb(255, 255, 255), rgb(18, 18, 18));"></ellipse><path d="M 204 434.15 L 210 434.15 L 210 437.13 L 208 437.13 L 208 438.13 L 206 438.13 L 206 437.13 L 204 437.13 Z M 212.5 434.15 L 218.5 434.15 L 218.5 437.13 L 216.5 437.13 L 216.5 438.13 L 214.5 438.13 L 214.5 437.13 L 212.5 437.13 Z M 221 434.15 L 227 434.15 L 227 437.13 L 225 437.13 L 225 438.13 L 223 438.13 L 223 437.13 L 221 437.13 Z M 229.5 434.15 L 235.5 434.15 L 235.5 437.13 L 233.5 437.13 L 233.5 438.13 L 231.5 438.13 L 231.5 437.13 L 229.5 437.13 Z M 238 434.15 L 244 434.15 L 244 437.13 L 242 437.13 L 242 438.13 L 240 438.13 L 240 437.13 L 238 437.13 Z M 246.5 434.15 L 252.5 434.15 L 252.5 437.13 L 250.5 437.13 L 250.5 438.13 L 248.5 438.13 L 248.5 437.13 L 246.5 437.13 Z M 255 434.15 L 261 434.15 L 261 437.13 L 259 437.13 L 259 438.13 L 257 438.13 L 257 437.13 L 255 437.13 Z M 263.5 434.15 L 269.5 434.15 L 269.5 437.13 L 267.5 437.13 L 267.5 438.13 L 265.5 438.13 L 265.5 437.13 L 263.5 437.13 Z" fill="#ffffff" stroke="none" pointer-events="all" style="fill: light-dark(rgb(255, 255, 255), rgb(18, 18, 18));"></path><rect x="201" y="371" width="0" height="0" fill="none" stroke="#6881b3" stroke-width="1.99" pointer-events="all" style="stroke: light-dark(rgb(104, 129, 179), rgb(107, 129, 172));"></rect><path d="M 291 437.63 L 293 439.62 L 291 441.6 M 284 439.62 L 293 439.62" fill="none" stroke="#6881b3" stroke-width="1.99" stroke-miterlimit="10" pointer-events="all" style="stroke: light-dark(rgb(104, 129, 179), rgb(107, 129, 172));"></path><path d="M 274.8 376.86 C 277 380.17 277 384.47 274.8 387.78 L 273.3 386.79 C 274.97 384.18 274.97 380.85 273.3 378.25 Z M 278.8 373.88 C 282.79 378.92 282.79 386.02 278.8 391.06 L 277.3 389.87 C 280.7 385.55 280.7 379.49 277.3 375.17 Z M 282.8 371 C 288.83 377.47 288.83 387.47 282.8 393.94 L 281.3 392.75 C 286.82 386.99 286.82 377.95 281.3 372.19 Z M 264.8 376.86 C 262.6 380.17 262.6 384.47 264.8 387.78 L 266.3 386.79 C 264.63 384.18 264.63 380.85 266.3 378.25 Z M 260.8 373.88 C 256.76 378.94 256.76 386.1 260.8 391.16 L 262.3 389.77 C 259 385.49 259 379.55 262.3 375.27 Z M 256.8 371.1 C 250.83 377.56 250.83 387.48 256.8 393.94 L 258.3 392.75 C 252.84 387.01 252.84 378.03 258.3 372.29 Z" fill="#cccccc" stroke="#6881b3" stroke-width="1.99" stroke-miterlimit="10" pointer-events="all" style="fill: light-dark(rgb(204, 204, 204), rgb(62, 62, 62)); stroke: light-dark(rgb(104, 129, 179), rgb(107, 129, 172));"></path></g></g><g data-cell-id="3a9f3e204087adf2-12"><g><path d="M 304.95 646.07 L 376.81 646.07 L 391 663.5 L 291 663.5 Z M 307.5 608.5 L 374 608.5 L 375.98 645.64 L 305.53 645.64 Z" fill="#cccccc" stroke="#6881b3" stroke-width="1.9" stroke-linejoin="round" stroke-miterlimit="10" pointer-events="all" style="fill: light-dark(rgb(204, 204, 204), rgb(62, 62, 62)); stroke: light-dark(rgb(104, 129, 179), rgb(107, 129, 172));"></path><path d="M 308 650.4 L 374.99 650.4 M 303.56 655.17 L 379.42 655.17 M 322.77 659.45 L 357.26 659.45" fill="none" stroke="#6881b3" stroke-width="1.9" stroke-linejoin="round" stroke-miterlimit="10" pointer-events="all" style="stroke: light-dark(rgb(104, 129, 179), rgb(107, 129, 172));"></path><path d="M 310.75 611.83 L 370.85 611.83 L 372.53 642.31 L 308.98 642.31 Z" fill="#ffffff" stroke="none" pointer-events="all" style="fill: light-dark(rgb(255, 255, 255), rgb(18, 18, 18));"></path></g></g><g data-cell-id="3a9f3e204087adf2-13"><g><path d="M 466 500.5 C 466 495.25 470.14 491 475.24 491 L 506.86 491 C 511.92 491.05 516 495.29 516 500.5 L 516 581.5 C 516 586.71 511.92 590.95 506.86 591 L 475.24 591 C 470.14 591 466 586.75 466 581.5 Z" fill="#cccccc" stroke="#6881b3" stroke-width="1.95" stroke-miterlimit="10" pointer-events="all" style="fill: light-dark(rgb(204, 204, 204), rgb(62, 62, 62)); stroke: light-dark(rgb(104, 129, 179), rgb(107, 129, 172));"></path><path d="M 467.95 500 L 467.95 582 L 514.05 582.12 L 514.05 500 Z" fill="#ffffff" stroke="none" pointer-events="all" style="fill: light-dark(rgb(255, 255, 255), rgb(18, 18, 18));"></path><rect x="484.97" y="584.8" width="11.96" height="3.6" rx="1.8" ry="1.8" fill="#ffffff" stroke="none" pointer-events="all" style="fill: light-dark(rgb(255, 255, 255), rgb(18, 18, 18));"></rect></g></g><g data-cell-id="3a9f3e204087adf2-14"><g><path d="M 841 480.28 C 840.55 482.75 839.33 485.01 837.52 486.73 L 803.79 504.33 C 800.5 506 796.62 506 793.33 504.33 L 743.33 480.87 C 742.07 479.6 741.25 477.96 741 476.18 C 741.32 473.5 742.55 471.01 744.48 469.14 L 775.88 442.17 C 777.99 440.61 780.35 439.42 782.86 438.65 L 808.44 431.62 C 811.02 431 813.72 431.91 815.42 433.97 L 780.54 459.77 L 841 480.28 Z" fill="#cccccc" stroke="#6881b3" stroke-width="2.01" stroke-miterlimit="10" pointer-events="all" style="fill: light-dark(rgb(204, 204, 204), rgb(62, 62, 62)); stroke: light-dark(rgb(104, 129, 179), rgb(107, 129, 172));"></path><path d="M 780.54 463.28 L 832.86 480.87 L 797.98 498.46 L 749.14 476.18 Z" fill="#ffffff" stroke="none" pointer-events="all" style="fill: light-dark(rgb(255, 255, 255), rgb(18, 18, 18));"></path><path d="M 814.29 434.01 L 780.16 443.12 L 742 476.13 L 797.93 501.85 L 840.4 480.58 M 781.16 459.32 L 743.01 475.52" fill="none" stroke="#6881b3" stroke-width="2.01" stroke-miterlimit="10" pointer-events="all" style="stroke: light-dark(rgb(104, 129, 179), rgb(107, 129, 172));"></path></g></g><g data-cell-id="3a9f3e204087adf2-15"><g><rect x="561" y="141" width="100" height="40" fill="#cccccc" stroke="#6881b3" stroke-width="2" pointer-events="all" style="fill: light-dark(rgb(204, 204, 204), rgb(62, 62, 62)); stroke: light-dark(rgb(104, 129, 179), rgb(107, 129, 172));"></rect><rect x="569" y="181" width="84" height="6" fill="#cccccc" stroke="#6881b3" stroke-width="2" pointer-events="all" style="fill: light-dark(rgb(204, 204, 204), rgb(62, 62, 62)); stroke: light-dark(rgb(104, 129, 179), rgb(107, 129, 172));"></rect><rect x="581" y="101" width="60" height="40" fill="#cccccc" stroke="#6881b3" stroke-width="2" pointer-events="all" style="fill: light-dark(rgb(204, 204, 204), rgb(62, 62, 62)); stroke: light-dark(rgb(104, 129, 179), rgb(107, 129, 172));"></rect><path d="M 641 171 L 651 201 L 571 201 L 581 171 Z M 586 179 L 636 179 M 583 187 L 639 187 M 579 195 L 643 195" fill="#cccccc" stroke="#6881b3" stroke-width="2" stroke-miterlimit="10" pointer-events="all" style="fill: light-dark(rgb(204, 204, 204), rgb(62, 62, 62)); stroke: light-dark(rgb(104, 129, 179), rgb(107, 129, 172));"></path><rect x="571" y="146" width="25" height="3" fill="#ffffff" stroke="none" pointer-events="all" style="fill: light-dark(rgb(255, 255, 255), rgb(18, 18, 18));"></rect><ellipse cx="646" cy="151" rx="5" ry="5" fill="#ffffff" stroke="none" pointer-events="all" style="fill: light-dark(rgb(255, 255, 255), rgb(18, 18, 18));"></ellipse></g></g><g data-cell-id="3a9f3e204087adf2-16"><g><path d="M 591 484 C 591 475.72 613.39 469 641 469 C 668.61 469 691 475.72 691 484 L 691 504 C 691 512.28 668.61 519 641 519 C 613.39 519 591 512.28 591 504 Z" fill="#cccccc" stroke="#6881b3" stroke-width="2" stroke-miterlimit="10" pointer-events="all" style="fill: light-dark(rgb(204, 204, 204), rgb(62, 62, 62)); stroke: light-dark(rgb(104, 129, 179), rgb(107, 129, 172));"></path><path d="M 591 459 C 591 450.72 613.39 444 641 444 C 668.61 444 691 450.72 691 459 L 691 479 C 691 487.28 668.61 494 641 494 C 613.39 494 591 487.28 591 479 Z" fill="#cccccc" stroke="#6881b3" stroke-width="2" stroke-miterlimit="10" pointer-events="all" style="fill: light-dark(rgb(204, 204, 204), rgb(62, 62, 62)); stroke: light-dark(rgb(104, 129, 179), rgb(107, 129, 172));"></path><path d="M 591 434 C 591 425.72 613.39 419 641 419 C 668.61 419 691 425.72 691 434 L 691 454 C 691 462.28 668.61 469 641 469 C 613.39 469 591 462.28 591 454 Z" fill="#cccccc" stroke="#6881b3" stroke-width="2" stroke-miterlimit="10" pointer-events="all" style="fill: light-dark(rgb(204, 204, 204), rgb(62, 62, 62)); stroke: light-dark(rgb(104, 129, 179), rgb(107, 129, 172));"></path><path d="M 591 484 C 591 492.28 613.39 499 641 499 C 668.61 499 691 492.28 691 484 M 591 459 C 591 467.28 613.39 474 641 474 C 668.61 474 691 467.28 691 459 M 591 434 C 591 442.28 613.39 449 641 449 C 668.61 449 691 442.28 691 434" fill="none" stroke="#6881b3" stroke-width="2" stroke-miterlimit="10" pointer-events="all" style="stroke: light-dark(rgb(104, 129, 179), rgb(107, 129, 172));"></path></g></g><g data-cell-id="3a9f3e204087adf2-17"><g><path d="M 122.11 171 L 237.67 301" fill="none" stroke="#000000" stroke-width="2" stroke-miterlimit="10" pointer-events="stroke" style="stroke: light-dark(rgb(0, 0, 0), rgb(237, 237, 237));"></path></g></g><g data-cell-id="3a9f3e204087adf2-18"><g><path d="M 251 171 L 251 301" fill="none" stroke="#000000" stroke-width="2" stroke-miterlimit="10" pointer-events="stroke" style="stroke: light-dark(rgb(0, 0, 0), rgb(237, 237, 237));"></path></g></g><g data-cell-id="3a9f3e204087adf2-19"><g><path d="M 431 171 L 269.62 301" fill="none" stroke="#000000" stroke-width="2" stroke-miterlimit="10" pointer-events="stroke" style="stroke: light-dark(rgb(0, 0, 0), rgb(237, 237, 237));"></path></g></g><g data-cell-id="3a9f3e204087adf2-20"><g><path d="M 301 316.62 L 611 320.44" fill="none" stroke="#000000" stroke-width="2" stroke-miterlimit="10" pointer-events="stroke" style="stroke: light-dark(rgb(0, 0, 0), rgb(255, 255, 255));"></path></g></g><g data-cell-id="3a9f3e204087adf2-21"><g><path d="M 301 430.5 L 611 334.88" fill="none" stroke="#000000" stroke-width="2" stroke-miterlimit="10" pointer-events="stroke" style="stroke: light-dark(rgb(0, 0, 0), rgb(255, 255, 255));"></path></g></g><g data-cell-id="3a9f3e204087adf2-22"><g><path d="M 656 271 L 629.75 201" fill="none" stroke="#000000" stroke-width="2" stroke-miterlimit="10" pointer-events="stroke" style="stroke: light-dark(rgb(0, 0, 0), rgb(255, 255, 255));"></path></g></g><g data-cell-id="3a9f3e204087adf2-23"><g><path d="M 650.93 371 L 646.07 419" fill="none" stroke="#000000" stroke-width="2" stroke-miterlimit="10" pointer-events="stroke" style="stroke: light-dark(rgb(0, 0, 0), rgb(255, 255, 255));"></path></g></g><g data-cell-id="3a9f3e204087adf2-24"><g><path d="M 701 370.17 L 756.68 431" fill="none" stroke="#000000" stroke-width="2" stroke-miterlimit="10" pointer-events="stroke" style="stroke: light-dark(rgb(0, 0, 0), rgb(255, 255, 255));"></path></g></g><g data-cell-id="3a9f3e204087adf2-25"><g><path d="M 701 321 L 831 321" fill="none" stroke="#000000" stroke-width="2" stroke-miterlimit="10" pointer-events="stroke" style="stroke: light-dark(rgb(0, 0, 0), rgb(255, 255, 255));"></path></g></g><g data-cell-id="3a9f3e204087adf2-26"><g><path d="M 880 271 L 877.4 141" fill="none" stroke="#000000" stroke-width="2" stroke-miterlimit="10" pointer-events="stroke" style="stroke: light-dark(rgb(0, 0, 0), rgb(255, 255, 255));"></path></g></g><g data-cell-id="3a9f3e204087adf2-27"><g><path d="M 457.65 525.35 L 360.42 498.06 L 379.84 482.72 L 307.35 454.82 L 404.58 482.11 L 385.16 497.45 Z" fill="#cccccc" stroke="#6881b3" stroke-width="2" stroke-miterlimit="10" pointer-events="all" style="fill: light-dark(rgb(204, 204, 204), rgb(62, 62, 62)); stroke: light-dark(rgb(104, 129, 179), rgb(107, 129, 172));"></path></g></g><g data-cell-id="3a9f3e204087adf2-29"><g><path d="M 332.97 600.62 L 299.48 518.73 L 320.54 523.9 L 300.79 458.78 L 334.28 540.67 L 313.22 535.5 Z" fill="#cccccc" stroke="#6881b3" stroke-width="2" stroke-miterlimit="10" pointer-events="all" style="fill: light-dark(rgb(204, 204, 204), rgb(62, 62, 62)); stroke: light-dark(rgb(104, 129, 179), rgb(107, 129, 172));"></path></g></g><g data-cell-id="3a9f3e204087adf2-30"><g><path d="M 202.39 593.75 L 210.46 511.93 L 225.51 525.32 L 237.58 463.25 L 229.52 545.07 L 214.47 531.68 Z" fill="#cccccc" stroke="#6881b3" stroke-width="2" stroke-miterlimit="10" pointer-events="all" style="fill: light-dark(rgb(204, 204, 204), rgb(62, 62, 62)); stroke: light-dark(rgb(104, 129, 179), rgb(107, 129, 172));"></path></g></g><g data-cell-id="3a9f3e204087adf2-31"><g><path d="M 102.11 527.03 L 151.18 474.8 L 154.46 492.05 L 195.8 455.59 L 146.73 507.83 L 143.45 490.57 Z" fill="#cccccc" stroke="#6881b3" stroke-width="2" stroke-miterlimit="10" pointer-events="all" style="fill: light-dark(rgb(204, 204, 204), rgb(62, 62, 62)); stroke: light-dark(rgb(104, 129, 179), rgb(107, 129, 172));"></path></g></g></g></g></g><switch><g requiredFeatures="http://www.w3.org/TR/SVG11/feature#Extensibility"></g><a transform="translate(0,-5)" xlink:href="https://www.drawio.com/doc/faq/svg-export-text-problems" target="_blank"><text text-anchor="middle" font-size="10px" x="50%" y="100%">Text is not SVG - cannot display</text></a></switch></svg>