<svg xmlns="http://www.w3.org/2000/svg" style="background: transparent; background-color: transparent;" xmlns:xlink="http://www.w3.org/1999/xlink" version="1.1" width="788px" height="516px" viewBox="0 0 788 516"><defs></defs><g><g data-cell-id="0"><g data-cell-id="1"><g data-cell-id="2"><g><path d="M 567 110.22 L 687 110.22 L 687 170.22 L 567 170.22 Z" fill="#ffffff" stroke="#000000" stroke-width="2" stroke-miterlimit="10" pointer-events="all" style="fill: light-dark(rgb(255, 255, 255), rgb(18, 18, 18)); stroke: light-dark(rgb(0, 0, 0), rgb(255, 255, 255));"></path><g fill="#666666" font-family="Arial, Helvetica" text-anchor="middle" font-size="12px" style="fill: light-dark(rgb(102, 102, 102), rgb(149, 149, 149));"></g></g><g><g fill="#000000" font-family="Helvetica" font-weight="bold" text-anchor="middle" font-size="12px" style="fill: light-dark(rgb(0, 0, 0), rgb(237, 237, 237));"><text x="627" y="145.22">League</text></g></g></g><g data-cell-id="4"><g><path d="M 141 354 L 261 354 L 261 414 L 141 414 Z" fill="#ffffff" stroke="#000000" stroke-width="2" stroke-miterlimit="10" pointer-events="all" style="fill: light-dark(rgb(255, 255, 255), rgb(18, 18, 18)); stroke: light-dark(rgb(0, 0, 0), rgb(255, 255, 255));"></path><g fill="#666666" font-family="Arial, Helvetica" text-anchor="middle" font-size="12px" style="fill: light-dark(rgb(102, 102, 102), rgb(149, 149, 149));"></g></g><g><g fill="#000000" font-family="Helvetica" font-weight="bold" text-anchor="middle" font-size="12px" style="fill: light-dark(rgb(0, 0, 0), rgb(237, 237, 237));"><text x="201" y="389">Manager</text></g></g></g><g data-cell-id="5"><g><path d="M 121 105 L 241 105 L 241 165 L 121 165 Z" fill="#ffffff" stroke="#000000" stroke-width="2" stroke-miterlimit="10" pointer-events="all" style="fill: light-dark(rgb(255, 255, 255), rgb(18, 18, 18)); stroke: light-dark(rgb(0, 0, 0), rgb(255, 255, 255));"></path><g fill="#666666" font-family="Arial, Helvetica" text-anchor="middle" font-size="12px" style="fill: light-dark(rgb(102, 102, 102), rgb(149, 149, 149));"></g></g><g><g fill="#000000" font-family="Helvetica" font-weight="bold" text-anchor="middle" font-size="12px" style="fill: light-dark(rgb(0, 0, 0), rgb(237, 237, 237));"><text x="181" y="140">State</text></g></g></g><g data-cell-id="6"><g><path d="M 567 354 L 687 354 L 687 414 L 567 414 Z" fill="#ffffff" stroke="#000000" stroke-width="2" stroke-miterlimit="10" pointer-events="all" style="fill: light-dark(rgb(255, 255, 255), rgb(18, 18, 18)); stroke: light-dark(rgb(0, 0, 0), rgb(255, 255, 255));"></path><g fill="#666666" font-family="Arial, Helvetica" text-anchor="middle" font-size="12px" style="fill: light-dark(rgb(102, 102, 102), rgb(149, 149, 149));"></g></g><g><g fill="#000000" font-family="Helvetica" font-weight="bold" text-anchor="middle" font-size="12px" style="fill: light-dark(rgb(0, 0, 0), rgb(237, 237, 237));"><text x="627" y="389">Club</text></g></g></g><g data-cell-id="7"><g><path d="M 592 265 L 627 245 L 662 265 L 627 285 Z" fill="#ffffff" stroke="#000000" stroke-width="2" stroke-miterlimit="10" pointer-events="all" style="fill: light-dark(#ffffff, var(--ge-dark-color, #121212)); stroke: light-dark(rgb(0, 0, 0), rgb(255, 255, 255));"></path><g fill="#666666" font-family="Arial, Helvetica" text-anchor="middle" font-size="10px" style="fill: light-dark(rgb(102, 102, 102), rgb(149, 149, 149));"></g></g><g><g fill="#999999" font-family="Helvetica" text-anchor="middle" font-size="10px" style="fill: light-dark(rgb(153, 153, 153), rgb(106, 106, 106));"><text x="627" y="269">has</text></g></g></g><g data-cell-id="8"><g><path d="M 341 140.22 L 376 120.22 L 411 140.22 L 376 160.22 Z" fill="#ffffff" stroke="#000000" stroke-width="2" stroke-miterlimit="10" pointer-events="all" style="fill: light-dark(#ffffff, var(--ge-dark-color, #121212)); stroke: light-dark(rgb(0, 0, 0), rgb(255, 255, 255));"></path><g fill="#666666" font-family="Arial, Helvetica" text-anchor="middle" font-size="10px" style="fill: light-dark(rgb(102, 102, 102), rgb(149, 149, 149));"></g></g><g><g fill="#999999" font-family="Helvetica" text-anchor="middle" font-size="10px" style="fill: light-dark(rgb(153, 153, 153), rgb(106, 106, 106));"><text x="376" y="144.22">has</text></g></g></g><g data-cell-id="9"><g><path d="M 351 384 L 386 364 L 421 384 L 386 404 Z" fill="#ffffff" stroke="#000000" stroke-width="2" stroke-miterlimit="10" pointer-events="all" style="fill: light-dark(#ffffff, var(--ge-dark-color, #121212)); stroke: light-dark(rgb(0, 0, 0), rgb(255, 255, 255));"></path><g fill="#666666" font-family="Arial, Helvetica" text-anchor="middle" font-size="10px" style="fill: light-dark(rgb(102, 102, 102), rgb(149, 149, 149));"></g></g><g><g fill="#999999" font-family="Helvetica" text-anchor="middle" font-size="10px" style="fill: light-dark(rgb(153, 153, 153), rgb(106, 106, 106));"><text x="386" y="388">has</text></g></g></g><g data-cell-id="10"><g transform="translate(0.5,0.5)"><path d="M 341 139.28 L 241 136.61" fill="none" stroke="#000000" stroke-miterlimit="10" pointer-events="stroke" style="stroke: light-dark(rgb(0, 0, 0), rgb(255, 255, 255));"></path><path d="M 240.89 140.6 L 249 136.82 L 241.11 132.61" fill="none" stroke="#000000" stroke-miterlimit="10" pointer-events="all" style="stroke: light-dark(rgb(0, 0, 0), rgb(255, 255, 255));"></path></g></g><g data-cell-id="11"><g transform="translate(0.5,0.5)"><path d="M 411 140.22 L 567 140.22" fill="none" stroke="#000000" stroke-miterlimit="10" pointer-events="stroke" style="stroke: light-dark(rgb(0, 0, 0), rgb(255, 255, 255));"></path></g></g><g data-cell-id="12"><g transform="translate(0.5,0.5)"><path d="M 627 245 L 627 170.22" fill="none" stroke="#000000" stroke-miterlimit="10" pointer-events="stroke" style="stroke: light-dark(rgb(0, 0, 0), rgb(255, 255, 255));"></path><path d="M 623 170.22 L 627 178.22 L 631 170.22" fill="none" stroke="#000000" stroke-miterlimit="10" pointer-events="all" style="stroke: light-dark(rgb(0, 0, 0), rgb(255, 255, 255));"></path></g></g><g data-cell-id="13"><g transform="translate(0.5,0.5)"><path d="M 627 285 L 627 354" fill="none" stroke="#000000" stroke-miterlimit="10" pointer-events="stroke" style="stroke: light-dark(rgb(0, 0, 0), rgb(255, 255, 255));"></path></g></g><g data-cell-id="14"><g transform="translate(0.5,0.5)"><path d="M 421 384 L 567 384" fill="none" stroke="#000000" stroke-miterlimit="10" pointer-events="stroke" style="stroke: light-dark(rgb(0, 0, 0), rgb(255, 255, 255));"></path><path d="M 567 380 L 559 384 L 567 388" fill="none" stroke="#000000" stroke-miterlimit="10" pointer-events="all" style="stroke: light-dark(rgb(0, 0, 0), rgb(255, 255, 255));"></path></g></g><g data-cell-id="15"><g transform="translate(0.5,0.5)"><path d="M 351 384 L 261 384" fill="none" stroke="#000000" stroke-miterlimit="10" pointer-events="stroke" style="stroke: light-dark(rgb(0, 0, 0), rgb(255, 255, 255));"></path></g></g><g data-cell-id="16"><g><path d="M 657 40.22 C 657 34.69 661.48 30.22 667 30.22 L 747 30.22 C 752.52 30.22 757 34.69 757 40.22 L 757 60.22 C 757 65.74 752.52 70.22 747 70.22 L 667 70.22 C 661.48 70.22 657 65.74 657 60.22 Z" fill="#ffffff" stroke="#000000" stroke-width="2" stroke-miterlimit="10" pointer-events="all" style="fill: light-dark(rgb(255, 255, 255), rgb(18, 18, 18)); stroke: light-dark(rgb(0, 0, 0), rgb(255, 255, 255));"></path><g fill="#666666" font-family="Arial, Helvetica" text-anchor="middle" font-size="12px" style="fill: light-dark(rgb(102, 102, 102), rgb(149, 149, 149));"></g></g><g><g fill="#007FFF" font-family="Helvetica" text-decoration="underline" text-anchor="middle" font-size="12px" style="fill: light-dark(rgb(0, 127, 255), rgb(49, 158, 255));"><text x="707" y="55.22">id</text></g></g></g><g data-cell-id="17"><g><path d="M 517 10.22 C 517 4.69 521.48 0.22 527 0.22 L 607 0.22 C 612.52 0.22 617 4.69 617 10.22 L 617 30.22 C 617 35.74 612.52 40.22 607 40.22 L 527 40.22 C 521.48 40.22 517 35.74 517 30.22 Z" fill="#ffffff" stroke="#000000" stroke-width="2" stroke-miterlimit="10" pointer-events="all" style="fill: light-dark(rgb(255, 255, 255), rgb(18, 18, 18)); stroke: light-dark(rgb(0, 0, 0), rgb(255, 255, 255));"></path><g fill="#666666" font-family="Arial, Helvetica" text-anchor="middle" font-size="12px" style="fill: light-dark(rgb(102, 102, 102), rgb(149, 149, 149));"></g></g><g><g fill="#007FFF" font-family="Helvetica" text-anchor="middle" font-size="12px" style="fill: light-dark(rgb(0, 127, 255), rgb(49, 158, 255));"><text x="567" y="25.22">name</text></g></g></g><g data-cell-id="18"><g><path d="M 411 70.22 C 411 64.69 415.48 60.22 421 60.22 L 501 60.22 C 506.52 60.22 511 64.69 511 70.22 L 511 90.22 C 511 95.74 506.52 100.22 501 100.22 L 421 100.22 C 415.48 100.22 411 95.74 411 90.22 Z" fill="#ffffff" stroke="#000000" stroke-width="2" stroke-miterlimit="10" pointer-events="all" style="fill: light-dark(rgb(255, 255, 255), rgb(18, 18, 18)); stroke: light-dark(rgb(0, 0, 0), rgb(255, 255, 255));"></path><g fill="#666666" font-family="Arial, Helvetica" text-anchor="middle" font-size="12px" style="fill: light-dark(rgb(102, 102, 102), rgb(149, 149, 149));"></g></g><g><g fill="#007FFF" font-family="Helvetica" text-anchor="middle" font-size="12px" style="fill: light-dark(rgb(0, 127, 255), rgb(49, 158, 255));"><text x="461" y="85.22">class</text></g></g></g><g data-cell-id="19"><g><path d="M 292 464 C 292 458.48 296.48 454 302 454 L 382 454 C 387.52 454 392 458.48 392 464 L 392 484 C 392 489.52 387.52 494 382 494 L 302 494 C 296.48 494 292 489.52 292 484 Z" fill="#ffffff" stroke="#000000" stroke-width="2" stroke-miterlimit="10" pointer-events="all" style="fill: light-dark(rgb(255, 255, 255), rgb(18, 18, 18)); stroke: light-dark(rgb(0, 0, 0), rgb(255, 255, 255));"></path><g fill="#666666" font-family="Arial, Helvetica" text-anchor="middle" font-size="12px" style="fill: light-dark(rgb(102, 102, 102), rgb(149, 149, 149));"></g></g><g><g fill="#007FFF" font-family="Helvetica" text-decoration="underline" text-anchor="middle" font-size="12px" style="fill: light-dark(rgb(0, 127, 255), rgb(49, 158, 255));"><text x="342" y="479">id</text></g></g></g><g data-cell-id="20"><g><path d="M 1 444 C 1 438.48 5.48 434 11 434 L 91 434 C 96.52 434 101 438.48 101 444 L 101 464 C 101 469.52 96.52 474 91 474 L 11 474 C 5.48 474 1 469.52 1 464 Z" fill="#ffffff" stroke="#000000" stroke-width="2" stroke-miterlimit="10" pointer-events="all" style="fill: light-dark(rgb(255, 255, 255), rgb(18, 18, 18)); stroke: light-dark(rgb(0, 0, 0), rgb(255, 255, 255));"></path><g fill="#666666" font-family="Arial, Helvetica" text-anchor="middle" font-size="12px" style="fill: light-dark(rgb(102, 102, 102), rgb(149, 149, 149));"></g></g><g><g fill="#007FFF" font-family="Helvetica" text-anchor="middle" font-size="12px" style="fill: light-dark(rgb(0, 127, 255), rgb(49, 158, 255));"><text x="51" y="459">name</text></g></g></g><g data-cell-id="21"><g><path d="M 171 484 C 171 478.48 175.48 474 181 474 L 261 474 C 266.52 474 271 478.48 271 484 L 271 504 C 271 509.52 266.52 514 261 514 L 181 514 C 175.48 514 171 509.52 171 504 Z" fill="#ffffff" stroke="#000000" stroke-width="2" stroke-miterlimit="10" pointer-events="all" style="fill: light-dark(rgb(255, 255, 255), rgb(18, 18, 18)); stroke: light-dark(rgb(0, 0, 0), rgb(255, 255, 255));"></path><g fill="#666666" font-family="Arial, Helvetica" text-anchor="middle" font-size="12px" style="fill: light-dark(rgb(102, 102, 102), rgb(149, 149, 149));"></g></g><g><g fill="#007FFF" font-family="Helvetica" text-anchor="middle" font-size="12px" style="fill: light-dark(rgb(0, 127, 255), rgb(49, 158, 255));"><text x="221" y="499">salary</text></g></g></g><g data-cell-id="22"><g><path d="M 687 464 C 687 458.48 691.48 454 697 454 L 777 454 C 782.52 454 787 458.48 787 464 L 787 484 C 787 489.52 782.52 494 777 494 L 697 494 C 691.48 494 687 489.52 687 484 Z" fill="#ffffff" stroke="#000000" stroke-width="2" stroke-miterlimit="10" pointer-events="all" style="fill: light-dark(rgb(255, 255, 255), rgb(18, 18, 18)); stroke: light-dark(rgb(0, 0, 0), rgb(255, 255, 255));"></path><g fill="#666666" font-family="Arial, Helvetica" text-anchor="middle" font-size="12px" style="fill: light-dark(rgb(102, 102, 102), rgb(149, 149, 149));"></g></g><g><g fill="#007FFF" font-family="Helvetica" text-decoration="underline" text-anchor="middle" font-size="12px" style="fill: light-dark(rgb(0, 127, 255), rgb(49, 158, 255));"><text x="737" y="479">id</text></g></g></g><g data-cell-id="23"><g><path d="M 517 464 C 517 458.48 521.48 454 527 454 L 607 454 C 612.52 454 617 458.48 617 464 L 617 484 C 617 489.52 612.52 494 607 494 L 527 494 C 521.48 494 517 489.52 517 484 Z" fill="#ffffff" stroke="#000000" stroke-width="2" stroke-miterlimit="10" pointer-events="all" style="fill: light-dark(rgb(255, 255, 255), rgb(18, 18, 18)); stroke: light-dark(rgb(0, 0, 0), rgb(255, 255, 255));"></path><g fill="#666666" font-family="Arial, Helvetica" text-anchor="middle" font-size="12px" style="fill: light-dark(rgb(102, 102, 102), rgb(149, 149, 149));"></g></g><g><g fill="#007FFF" font-family="Helvetica" text-anchor="middle" font-size="12px" style="fill: light-dark(rgb(0, 127, 255), rgb(49, 158, 255));"><text x="567" y="479">rating</text></g></g></g><g data-cell-id="24"><g><path d="M 141 265 C 141 259.48 145.48 255 151 255 L 231 255 C 236.52 255 241 259.48 241 265 L 241 285 C 241 290.52 236.52 295 231 295 L 151 295 C 145.48 295 141 290.52 141 285 Z" fill="#ffffff" stroke="#000000" stroke-width="2" stroke-miterlimit="10" pointer-events="all" style="fill: light-dark(rgb(255, 255, 255), rgb(18, 18, 18)); stroke: light-dark(rgb(0, 0, 0), rgb(255, 255, 255));"></path><g fill="#666666" font-family="Arial, Helvetica" text-anchor="middle" font-size="12px" style="fill: light-dark(rgb(102, 102, 102), rgb(149, 149, 149));"></g></g><g><g fill="#007FFF" font-family="Helvetica" text-anchor="middle" font-size="12px" style="fill: light-dark(rgb(0, 127, 255), rgb(49, 158, 255));"><text x="191" y="280">name</text></g></g></g><g data-cell-id="25"><g><path d="M 271 235 C 271 229.48 275.48 225 281 225 L 361 225 C 366.52 225 371 229.48 371 235 L 371 255 C 371 260.52 366.52 265 361 265 L 281 265 C 275.48 265 271 260.52 271 255 Z" fill="#ffffff" stroke="#000000" stroke-width="2" stroke-miterlimit="10" pointer-events="all" style="fill: light-dark(rgb(255, 255, 255), rgb(18, 18, 18)); stroke: light-dark(rgb(0, 0, 0), rgb(255, 255, 255));"></path><g fill="#666666" font-family="Arial, Helvetica" text-anchor="middle" font-size="12px" style="fill: light-dark(rgb(102, 102, 102), rgb(149, 149, 149));"></g></g><g><g fill="#007FFF" font-family="Helvetica" text-decoration="underline" text-anchor="middle" font-size="12px" style="fill: light-dark(rgb(0, 127, 255), rgb(49, 158, 255));"><text x="321" y="250">id</text></g></g></g><g data-cell-id="26"><g><path d="M 231 15 C 231 9.48 235.48 5 241 5 L 321 5 C 326.52 5 331 9.48 331 15 L 331 35 C 331 40.52 326.52 45 321 45 L 241 45 C 235.48 45 231 40.52 231 35 Z" fill="#ffffff" stroke="#000000" stroke-width="2" stroke-miterlimit="10" pointer-events="all" style="fill: light-dark(rgb(255, 255, 255), rgb(18, 18, 18)); stroke: light-dark(rgb(0, 0, 0), rgb(255, 255, 255));"></path><g fill="#666666" font-family="Arial, Helvetica" text-anchor="middle" font-size="12px" style="fill: light-dark(rgb(102, 102, 102), rgb(149, 149, 149));"></g></g><g><g fill="#007FFF" font-family="Helvetica" text-anchor="middle" font-size="12px" style="fill: light-dark(rgb(0, 127, 255), rgb(49, 158, 255));"><text x="281" y="30">continent</text></g></g></g><g data-cell-id="27"><g><path d="M 91 30.22 C 91 24.69 95.48 20.22 101 20.22 L 181 20.22 C 186.52 20.22 191 24.69 191 30.22 L 191 50.22 C 191 55.74 186.52 60.22 181 60.22 L 101 60.22 C 95.48 60.22 91 55.74 91 50.22 Z" fill="#ffffff" stroke="#000000" stroke-width="2" stroke-miterlimit="10" pointer-events="all" style="fill: light-dark(rgb(255, 255, 255), rgb(18, 18, 18)); stroke: light-dark(rgb(0, 0, 0), rgb(255, 255, 255));"></path><g fill="#666666" font-family="Arial, Helvetica" text-anchor="middle" font-size="12px" style="fill: light-dark(rgb(102, 102, 102), rgb(149, 149, 149));"></g></g><g><g fill="#007FFF" font-family="Helvetica" text-anchor="middle" font-size="12px" style="fill: light-dark(rgb(0, 127, 255), rgb(49, 158, 255));"><text x="141" y="45.22">rating</text></g></g></g><g data-cell-id="28"><g><path d="M 21 215 C 21 209.48 25.48 205 31 205 L 111 205 C 116.52 205 121 209.48 121 215 L 121 235 C 121 240.52 116.52 245 111 245 L 31 245 C 25.48 245 21 240.52 21 235 Z" fill="#ffffff" stroke="#000000" stroke-width="2" stroke-miterlimit="10" pointer-events="all" style="fill: light-dark(rgb(255, 255, 255), rgb(18, 18, 18)); stroke: light-dark(rgb(0, 0, 0), rgb(255, 255, 255));"></path><g fill="#666666" font-family="Arial, Helvetica" text-anchor="middle" font-size="12px" style="fill: light-dark(rgb(102, 102, 102), rgb(149, 149, 149));"></g></g><g><g fill="#007FFF" font-family="Helvetica" text-anchor="middle" font-size="12px" style="fill: light-dark(rgb(0, 127, 255), rgb(49, 158, 255));"><text x="71" y="230">cups</text></g></g></g><g data-cell-id="42"><g><path d="M 687 225 C 687 219.48 691.48 215 697 215 L 777 215 C 782.52 215 787 219.48 787 225 L 787 245 C 787 250.52 782.52 255 777 255 L 697 255 C 691.48 255 687 250.52 687 245 Z" fill="#ffffff" stroke="#000000" stroke-width="2" stroke-miterlimit="10" pointer-events="all" style="fill: light-dark(rgb(255, 255, 255), rgb(18, 18, 18)); stroke: light-dark(rgb(0, 0, 0), rgb(255, 255, 255));"></path><g fill="#666666" font-family="Arial, Helvetica" text-anchor="middle" font-size="12px" style="fill: light-dark(rgb(102, 102, 102), rgb(149, 149, 149));"></g></g><g><g fill="#007FFF" font-family="Helvetica" text-anchor="middle" font-size="12px" style="fill: light-dark(rgb(0, 127, 255), rgb(49, 158, 255));"><text x="737" y="240">pro</text></g></g></g><g data-cell-id="44"><g transform="translate(0.5,0.5)"><path d="M 144.33 165 L 95.44 205" fill="none" stroke="#000000" stroke-miterlimit="10" pointer-events="stroke" style="stroke: light-dark(rgb(0, 0, 0), rgb(255, 255, 255));"></path><ellipse cx="104.73" cy="197.4" rx="3" ry="3" fill="#ffffff" stroke="#000000" pointer-events="all" style="fill: light-dark(rgb(255, 255, 255), rgb(18, 18, 18)); stroke: light-dark(rgb(0, 0, 0), rgb(255, 255, 255));"></ellipse><path d="M 97.98 208.1 L 101.64 199.93 L 92.91 201.9" fill="none" stroke="#000000" stroke-miterlimit="10" pointer-events="all" style="stroke: light-dark(rgb(0, 0, 0), rgb(255, 255, 255));"></path></g></g><g data-cell-id="46"><g transform="translate(0.5,0.5)"><path d="M 183.14 165 L 189.57 255" fill="none" stroke="#000000" stroke-miterlimit="10" pointer-events="stroke" style="stroke: light-dark(rgb(0, 0, 0), rgb(255, 255, 255));"></path><path d="M 185.3 251.3 L 193.28 250.73 M 185.01 247.31 L 192.99 246.74" fill="none" stroke="#000000" stroke-miterlimit="10" pointer-events="all" style="stroke: light-dark(rgb(0, 0, 0), rgb(255, 255, 255));"></path></g></g><g data-cell-id="47"><g transform="translate(0.5,0.5)"><path d="M 219.18 165 L 295.55 225" fill="none" stroke="#000000" stroke-miterlimit="10" pointer-events="stroke" style="stroke: light-dark(rgb(0, 0, 0), rgb(255, 255, 255));"></path><path d="M 289.93 225.67 L 294.87 219.38 M 286.78 223.2 L 291.73 216.91" fill="none" stroke="#000000" stroke-miterlimit="10" pointer-events="all" style="stroke: light-dark(rgb(0, 0, 0), rgb(255, 255, 255));"></path></g></g><g data-cell-id="48"><g transform="translate(0.5,0.5)"><path d="M 208.27 105 L 262.82 45" fill="none" stroke="#000000" stroke-miterlimit="10" pointer-events="stroke" style="stroke: light-dark(rgb(0, 0, 0), rgb(255, 255, 255));"></path><path d="M 263.09 50.65 L 257.17 45.27 M 260.4 53.61 L 254.48 48.23" fill="none" stroke="#000000" stroke-miterlimit="10" pointer-events="all" style="stroke: light-dark(rgb(0, 0, 0), rgb(255, 255, 255));"></path></g></g><g data-cell-id="49"><g transform="translate(0.5,0.5)"><path d="M 168.34 105 L 149.44 60.22" fill="none" stroke="#000000" stroke-miterlimit="10" pointer-events="stroke" style="stroke: light-dark(rgb(0, 0, 0), rgb(255, 255, 255));"></path><path d="M 154.68 62.35 L 147.31 65.46 M 156.24 66.03 L 148.87 69.14" fill="none" stroke="#000000" stroke-miterlimit="10" pointer-events="all" style="stroke: light-dark(rgb(0, 0, 0), rgb(255, 255, 255));"></path></g></g><g data-cell-id="50"><g transform="translate(0.5,0.5)"><path d="M 567 118.53 L 511 98.29" fill="none" stroke="#000000" stroke-miterlimit="10" pointer-events="stroke" style="stroke: light-dark(rgb(0, 0, 0), rgb(255, 255, 255));"></path><path d="M 516.12 95.89 L 513.4 103.41 M 519.88 97.25 L 517.16 104.77" fill="none" stroke="#000000" stroke-miterlimit="10" pointer-events="all" style="stroke: light-dark(rgb(0, 0, 0), rgb(255, 255, 255));"></path></g></g><g data-cell-id="51"><g transform="translate(0.5,0.5)"><path d="M 612 110.22 L 577 40.22" fill="none" stroke="#000000" stroke-miterlimit="10" pointer-events="stroke" style="stroke: light-dark(rgb(0, 0, 0), rgb(255, 255, 255));"></path><path d="M 582.37 42.01 L 575.21 45.58 M 584.16 45.58 L 577 49.16" fill="none" stroke="#000000" stroke-miterlimit="10" pointer-events="all" style="stroke: light-dark(rgb(0, 0, 0), rgb(255, 255, 255));"></path></g></g><g data-cell-id="52"><g transform="translate(0.5,0.5)"><path d="M 653.67 110.22 L 689.22 70.22" fill="none" stroke="#000000" stroke-miterlimit="10" pointer-events="stroke" style="stroke: light-dark(rgb(0, 0, 0), rgb(255, 255, 255));"></path><path d="M 689.55 75.86 L 683.58 70.55 M 686.9 78.85 L 680.92 73.54" fill="none" stroke="#000000" stroke-miterlimit="10" pointer-events="all" style="stroke: light-dark(rgb(0, 0, 0), rgb(255, 255, 255));"></path></g></g><g data-cell-id="53"><g transform="translate(0.5,0.5)"><path d="M 661.82 170.22 L 713.79 215" fill="none" stroke="#000000" stroke-miterlimit="10" pointer-events="stroke" style="stroke: light-dark(rgb(0, 0, 0), rgb(255, 255, 255));"></path><path d="M 708.15 215.42 L 713.37 209.36 M 705.12 212.81 L 710.34 206.75" fill="none" stroke="#000000" stroke-miterlimit="10" pointer-events="all" style="stroke: light-dark(rgb(0, 0, 0), rgb(255, 255, 255));"></path></g></g><g data-cell-id="54"><g transform="translate(0.5,0.5)"><path d="M 663.67 414 L 712.56 454" fill="none" stroke="#000000" stroke-miterlimit="10" pointer-events="stroke" style="stroke: light-dark(rgb(0, 0, 0), rgb(255, 255, 255));"></path><path d="M 706.93 454.56 L 711.99 448.37 M 703.83 452.03 L 708.9 445.84" fill="none" stroke="#000000" stroke-miterlimit="10" pointer-events="all" style="stroke: light-dark(rgb(0, 0, 0), rgb(255, 255, 255));"></path></g></g><g data-cell-id="55"><g transform="translate(0.5,0.5)"><path d="M 607 414 L 580.33 454" fill="none" stroke="#000000" stroke-miterlimit="10" pointer-events="stroke" style="stroke: light-dark(rgb(0, 0, 0), rgb(255, 255, 255));"></path><path d="M 579.22 448.45 L 585.88 452.89 M 581.44 445.12 L 588.1 449.56" fill="none" stroke="#000000" stroke-miterlimit="10" pointer-events="all" style="stroke: light-dark(rgb(0, 0, 0), rgb(255, 255, 255));"></path></g></g><g data-cell-id="56"><g transform="translate(0.5,0.5)"><path d="M 248 414 L 310.67 454" fill="none" stroke="#000000" stroke-miterlimit="10" pointer-events="stroke" style="stroke: light-dark(rgb(0, 0, 0), rgb(255, 255, 255));"></path><path d="M 305.14 455.22 L 309.45 448.48 M 301.77 453.07 L 306.08 446.32" fill="none" stroke="#000000" stroke-miterlimit="10" pointer-events="all" style="stroke: light-dark(rgb(0, 0, 0), rgb(255, 255, 255));"></path></g></g><g data-cell-id="57"><g transform="translate(0.5,0.5)"><path d="M 141 412 L 93.86 434" fill="none" stroke="#000000" stroke-miterlimit="10" pointer-events="stroke" style="stroke: light-dark(rgb(0, 0, 0), rgb(255, 255, 255));"></path><path d="M 95.79 428.68 L 99.17 435.93 M 99.42 426.99 L 102.8 434.24" fill="none" stroke="#000000" stroke-miterlimit="10" pointer-events="all" style="stroke: light-dark(rgb(0, 0, 0), rgb(255, 255, 255));"></path></g></g><g data-cell-id="58"><g transform="translate(0.5,0.5)"><path d="M 206.45 414 L 217.36 474" fill="none" stroke="#000000" stroke-miterlimit="10" pointer-events="stroke" style="stroke: light-dark(rgb(0, 0, 0), rgb(255, 255, 255));"></path><ellipse cx="215.22" cy="462.19" rx="3" ry="3" fill="#ffffff" stroke="#000000" pointer-events="all" style="fill: light-dark(rgb(255, 255, 255), rgb(18, 18, 18)); stroke: light-dark(rgb(0, 0, 0), rgb(255, 255, 255));"></ellipse><path d="M 212.71 470.78 L 220.58 469.35" fill="none" stroke="#000000" stroke-miterlimit="10" pointer-events="all" style="stroke: light-dark(rgb(0, 0, 0), rgb(255, 255, 255));"></path></g></g></g></g></g></svg>