<?xml version="1.0"?><!DOCTYPE svg  PUBLIC '-//W3C//DTD SVG 1.1//EN'  'http://www.w3.org/Graphics/SVG/1.1/DTD/svg11.dtd'><svg height="512px" style="enable-background:new 0 0 512 512;" version="1.1" viewBox="0 0 512 512" width="512px" xml:space="preserve" xmlns="http://www.w3.org/2000/svg" xmlns:xlink="http://www.w3.org/1999/xlink"><g id="_x33_22_x2C__hill_x2C__landscape_x2C__nature_x2C__mountain_x2C__scene"><g><path d="M285.388,294.236c-5.987,3.476-12.64,7.002-19.126,10.444    c-14.47,7.685-28.124,14.935-30.901,19.376c-5.322,8.516-10.861,9.396-15.917,10.195c-4.773,0.765-9.031,1.447-11.908,12.258    c-2.245,8.448-4.973,14.752-8,21.704l-0.05,0.1h26.411c5.754-6.936,9.097-11.044,11.925-15.317    c2.96-4.424,5.455-9.182,9.663-17.63c1.214-2.444,2.511-4.74,3.858-6.886c5.056-8.814,9.53-13.505,23.184-24.864l2.195-1.846    c2.129-1.796,4.274-3.626,6.42-5.505l0.1-0.084C283.975,295.518,284.689,294.868,285.388,294.236 M438.299,368.313h47.7    c-4.558-5.188-9.197-10.827-13.954-15.783c-6.303-7.002-11.31-12.54-14.803-22.586l-0.515-1.514    c-6.919-19.991-6.952-20.074-25.929-33.247c-14.886-10.328-18.494-19.025-21.922-27.325c-2.76-6.687-5.421-13.105-14.602-19.925    c-6.486-4.623-11.476-7.152-15.967-9.43c-8.082-4.092-14.619-7.401-25.18-20.074l-3.742,3.143    c-2.645,2.179-5.272,4.375-7.883,6.687c-6.172,5.472-10.379,10.395-13.688,15.118c8.481,10.178,14.669,13.787,21.937,18.012    c3.826,2.229,7.967,4.641,12.939,8.266c8.25,6.021,10.545,11.609,12.957,17.48c2.511,6.137,5.172,12.606,16.115,20.19    c16.149,11.21,16.183,11.276,22.087,28.374l0.416,1.197c2.544,7.318,6.32,11.492,11.093,16.781l2.578,2.877L438.299,368.313z     M306.344,277.555c-0.798,1.713-2.328,3.525-4.424,5.405l-0.666,0.815c-4.939,5.986-10.128,10.91-15.284,15.434l-0.066,0.066    l-0.166,0.15c-2.378,2.111-5.022,4.357-8.083,6.902l-0.665,0.564c-8.116,6.886-15.834,13.805-22.037,23.533    c-1.83,3.161-3.709,6.854-6.137,11.66l-2.544,4.973c-4.275,8.299-9.397,14.502-15.052,21.255h201.643l-10.528-11.908    c-5.073-5.622-9.098-10.079-11.908-18.179l-0.416-1.197c-5.472-15.834-5.505-15.916-20.557-26.344    c-11.941-8.3-14.835-15.318-17.579-22.004c-2.18-5.322-4.275-10.412-11.576-15.734c-4.723-3.459-8.798-5.82-12.573-8.016    c-7.401-4.309-13.722-7.983-22.253-18.013c-1.996,3.193-3.692,6.337-5.406,9.514c-3.375,6.271-6.835,12.706-12.906,20.124    l-0.065,0.083l-0.167,0.2l-0.249,0.315l-0.25,0.3L306.344,277.555z M205.091,163.063c1.347,4.807,0.582,7.734-0.366,11.359    c-1.214,4.607-2.794,10.578,0.565,25.247l0.017,0.1c3.509,15.401,5.072,17.929,10.461,26.743l2.229,3.676    c3.077,5.09,21.105,12.175,39.915,19.576c13.173,5.188,26.728,10.511,36.258,15.75l-0.383-0.449    c-9.646-11.343-19.892-23.385-29.954-32.232l-3.559-2.994c-11.758-9.813-14.669-12.24-21.987-28.889    c-8.749-19.891-14.47-23.982-23.135-30.186C212.209,168.65,208.933,166.307,205.091,163.063z M88.47,368.313    c2.894-6.503,5.705-12.075,8.482-17.563c4.507-8.897,8.898-17.579,13.188-29.487l0.416-1.147    c6.503-18.029,8.266-22.918,17.313-38.286c3.659-6.188,6.104-11.359,7.95-17.247c1.863-5.921,3.16-12.607,4.474-21.771v-0.067    c0.848-6.037,1.43-10.178,2.345-14.137c0.931-3.991,2.179-7.7,4.308-12.807c2.611-6.286,6.636-7.966,10.694-9.646    c3.276-1.379,6.619-2.76,8.765-7.517c3.143-6.902,10.644-16.466,17.746-25.529c1.813-2.312,3.592-4.573,5.256-6.753    c-1.364,1.031-2.745,2.046-4.108,3.061c-6.669,4.956-13.289,9.862-19.209,16.465l-0.034,0.033    c-4.474,5.239-9.213,10.195-13.904,15.118c-5.322,5.556-10.611,11.094-15.318,16.815c-3.809,4.873-6.07,8.365-7.75,12.074    c-1.696,3.725-2.844,7.767-4.424,13.705v0.016c-2.628,9.463-5.189,16.383-8.981,22.603c-3.775,6.237-8.731,11.692-16.049,18.161    c-17.064,15.02-20.407,19.842-32.698,37.521l-0.831,1.181c-8.466,12.191-17.031,20.973-25.796,29.971    c-4.723,4.839-9.497,9.763-14.303,15.234H88.47z M305.462,159.537c5.705,0,10.878,2.312,14.637,6.053    c3.741,3.76,6.054,8.932,6.054,14.653c0,5.704-2.313,10.894-6.054,14.636c-3.759,3.742-8.932,6.054-14.637,6.054    c-5.721,0-10.894-2.312-14.636-6.07c-3.759-3.726-6.07-8.915-6.07-14.619c0-5.722,2.312-10.894,6.054-14.653l0.134-0.115    C294.685,161.799,299.808,159.537,305.462,159.537z M303.417,145.732c0-1.114,0.914-2.046,2.045-2.046    c1.114,0,2.029,0.932,2.029,2.046v7.949c0,1.131-0.915,2.047-2.029,2.047c-1.131,0-2.045-0.916-2.045-2.047V145.732z     M334.302,161.217c0.981-0.549,2.229-0.217,2.794,0.748s0.232,2.229-0.748,2.795l-6.869,3.957c-0.98,0.566-2.229,0.233-2.794-0.73    c-0.565-0.982-0.233-2.229,0.748-2.795L334.302,161.217z M336.348,195.727c0.965,0.549,1.297,1.797,0.748,2.778    c-0.565,0.964-1.813,1.297-2.777,0.748l-6.886-3.975c-0.964-0.565-1.297-1.813-0.748-2.778c0.565-0.98,1.813-1.313,2.777-0.748    L336.348,195.727z M307.491,214.736c0,1.132-0.915,2.047-2.029,2.047c-1.131,0-2.045-0.915-2.045-2.047v-7.949    c0-1.114,0.914-2.045,2.045-2.045c1.114,0,2.029,0.931,2.029,2.045V214.736z M276.59,199.253    c-0.965,0.549-2.229,0.216-2.777-0.748c-0.565-0.981-0.217-2.229,0.748-2.778l6.886-3.975c0.965-0.565,2.212-0.232,2.777,0.748    c0.549,0.965,0.216,2.213-0.748,2.778L276.59,199.253z M274.561,164.76c-0.981-0.566-1.313-1.83-0.748-2.795    s1.813-1.297,2.777-0.748l6.886,3.975c0.981,0.566,1.313,1.813,0.748,2.795c-0.565,0.964-1.813,1.297-2.794,0.73L274.561,164.76z     M318.768,153.084c0.566-0.965,1.813-1.298,2.795-0.749c0.964,0.565,1.297,1.813,0.748,2.778l-2.428,4.207    c-0.566,0.965-1.813,1.297-2.777,0.749c-0.982-0.565-1.314-1.813-0.749-2.778L318.768,153.084z M335.633,178.197    c1.131,0,2.045,0.915,2.045,2.046c0,1.114-0.914,2.028-2.045,2.028h-4.857c-1.131,0-2.045-0.914-2.045-2.028    c0-1.131,0.914-2.046,2.045-2.046H335.633z M322.311,205.357c0.549,0.964,0.216,2.229-0.748,2.777    c-0.982,0.564-2.229,0.216-2.795-0.749l-2.411-4.208c-0.565-0.965-0.233-2.211,0.749-2.777c0.964-0.549,2.211-0.216,2.777,0.748    L322.311,205.357z M292.124,207.386c-0.549,0.981-1.813,1.313-2.777,0.749c-0.981-0.566-1.314-1.813-0.749-2.777l2.429-4.209    c0.565-0.964,1.813-1.313,2.794-0.748c0.964,0.566,1.297,1.813,0.731,2.795L292.124,207.386z M275.275,182.271    c-1.131,0-2.045-0.914-2.045-2.028c0-1.131,0.914-2.046,2.045-2.046h4.857c1.114,0,2.045,0.915,2.045,2.046    c0,1.114-0.931,2.028-2.045,2.028H275.275z M288.598,155.113c-0.549-0.965-0.216-2.213,0.749-2.778    c0.98-0.549,2.229-0.216,2.777,0.749l2.428,4.207c0.565,0.965,0.217,2.213-0.748,2.778c-0.981,0.548-2.229,0.216-2.777-0.749    L288.598,155.113z M195.045,368.313l0.748-1.729c2.96-6.786,5.638-12.939,7.8-21.105c3.559-13.389,9.048-14.271,15.218-15.252    c4.175-0.648,8.749-1.38,13.089-8.315c3.36-5.389,17.48-12.89,32.431-20.839c13.007-6.886,26.66-14.154,33.779-20.092    c1.264-1.463,2.577-3.027,4.008-4.723c-4.757-6.586-25.662-14.818-45.703-22.703c-19.459-7.65-38.12-14.984-41.912-21.271    l-2.211-3.643c-5.655-9.247-7.285-11.908-10.96-27.99l-0.017-0.066c-3.576-15.668-1.863-22.17-0.532-27.193    c1.031-3.941,1.796-6.869-1.38-13.887c-3.01,4.606-7.451,10.262-12.042,16.115c-6.952,8.882-14.303,18.229-17.23,24.682    c-2.827,6.236-6.902,7.934-10.927,9.613c-3.276,1.363-6.52,2.728-8.499,7.451c-2.046,4.889-3.227,8.416-4.091,12.157    c-0.865,3.742-1.447,7.834-2.279,13.788v0.083c-1.347,9.396-2.678,16.266-4.624,22.419c-1.946,6.17-4.507,11.609-8.333,18.078    c-8.848,15.053-10.594,19.859-16.98,37.588l-0.416,1.147c-4.408,12.208-8.849,20.973-13.389,29.954    c-2.511,4.973-5.073,10.028-7.65,15.733H195.045z" style="fill-rule:evenodd;clip-rule:evenodd;"/></g></g><g id="Layer_1"/></svg>