<svg width="256" height="256" viewBox="0 0 256 256" fill="none" xmlns="http://www.w3.org/2000/svg" role="img" aria-labelledby="title desc">
  <title id="title">katana-canvas-forge logo</title>
  <desc id="desc">A compact kcf logo for katana-canvas-forge.</desc>
  <rect width="256" height="256" rx="52" fill="#111827"/>
  <path d="M56 74C56 64.0589 64.0589 56 74 56H182C191.941 56 200 64.0589 200 74V182C200 191.941 191.941 200 182 200H74C64.0589 200 56 191.941 56 182V74Z" fill="#F9FAFB"/>
  <path d="M83 89H104V121L132 89H158L126 126L162 167H135L104 131V167H83V89Z" fill="#111827"/>
  <path d="M171 89H193V111H171V89Z" fill="#2563EB"/>
  <path d="M171 123H193V167H171V123Z" fill="#2563EB"/>
  <path d="M63 217L217 63" stroke="#2563EB" stroke-width="10" stroke-linecap="round"/>
  <path d="M70 221H186" stroke="#F9FAFB" stroke-width="8" stroke-linecap="round"/>
  <text x="128" y="234" text-anchor="middle" font-family="Inter, Arial, sans-serif" font-size="22" font-weight="800" fill="#F9FAFB">kcf</text>
</svg>
