<svg xmlns="http://www.w3.org/2000/svg" style="background: transparent; background-color: transparent;" xmlns:xlink="http://www.w3.org/1999/xlink" version="1.1" width="708px" height="397px" viewBox="0 0 708 397"><defs><linearGradient x1="0%" y1="0%" x2="100%" y2="0%" id="drawio-svg-xxH6y_M5mEEb7-QHA4yB-gradient-light-dark_000000_ededed_-0.4-light-dark_ffffff_121212_-0.4-e-0"><stop offset="0%" stop-color="#000000" stop-opacity="0.4" style="stop-color: light-dark(rgb(0, 0, 0), rgb(237, 237, 237)); stop-opacity: 0.4;"></stop><stop offset="100%" stop-color="#ffffff" stop-opacity="0.4" style="stop-color: light-dark(rgb(255, 255, 255), rgb(18, 18, 18)); stop-opacity: 0.4;"></stop></linearGradient></defs><g><g data-cell-id="0"><g data-cell-id="1"><g data-cell-id="jNTM52YTxWMKljqT_B0W-1"><g transform="translate(0.5,0.5)"></g><g data-cell-id="jNTM52YTxWMKljqT_B0W-2"><g transform="translate(0.5,0.5)"><path d="M 132 35 L 132 25 L 132 15 L 289 15 L 290 25 L 289 35 Z" fill="#c48b56" stroke="none" pointer-events="all" style="fill: light-dark(rgb(196, 139, 86), rgb(153, 104, 59));"></path></g><g><g><switch><foreignObject style="overflow: visible; text-align: left;" pointer-events="none" width="100%" height="100%" requiredFeatures="http://www.w3.org/TR/SVG11/feature#Extensibility"><div xmlns="http://www.w3.org/1999/xhtml" style="display: flex; align-items: unsafe center; justify-content: unsafe center; width: 1px; height: 1px; padding-top: 25px; margin-left: 211px;"><div style="box-sizing: border-box; font-size: 0; text-align: center; color: #FFFFFF; "><div style="display: inline-block; font-size: 14px; font-family: Verdana; color: light-dark(#FFFFFF, #121212); line-height: 1.2; pointer-events: all; font-weight: bold; white-space: nowrap; ">Label</div></div></div></foreignObject><text x="211" y="29" fill="#FFFFFF" font-family="Verdana" font-size="14px" text-anchor="middle" font-weight="bold">Label</text></switch></g></g></g><g data-cell-id="jNTM52YTxWMKljqT_B0W-3"><g transform="translate(0.5,0.5)"><path d="M 283 10 C 283 4.48 314.56 0 353.5 0 C 392.44 0 424 4.48 424 10 L 424 33 C 424 38.52 392.44 43 353.5 43 C 314.56 43 283 38.52 283 33 Z" fill="#ffb570" stroke="none" pointer-events="all" style="fill: light-dark(rgb(255, 181, 112), rgb(126, 63, 3));"></path><path d="M 283 10 C 283 15.52 314.56 20 353.5 20 C 392.44 20 424 15.52 424 10 L 424 33 C 424 38.52 392.44 43 353.5 43 C 314.56 43 283 38.52 283 33 Z" fill="url(#drawio-svg-xxH6y_M5mEEb7-QHA4yB-gradient-light-dark_000000_ededed_-0.4-light-dark_ffffff_121212_-0.4-e-0)" stroke="none" pointer-events="all" style="fill: url(&quot;#drawio-svg-xxH6y_M5mEEb7-QHA4yB-gradient-light-dark_000000_ededed_-0.4-light-dark_ffffff_121212_-0.4-e-0&quot;);"></path><path d="M 283 10 C 283 4.48 314.56 0 353.5 0 C 392.44 0 424 4.48 424 10 L 424 33 C 424 38.52 392.44 43 353.5 43 C 314.56 43 283 38.52 283 33 Z" fill="none" stroke="none" pointer-events="all"></path></g></g><g data-cell-id="jNTM52YTxWMKljqT_B0W-4"><g transform="translate(0.5,0.5)"><rect x="0" y="15" width="283" height="82" fill="none" stroke="none" pointer-events="all"></rect></g><g><g><switch><foreignObject style="overflow: visible; text-align: left;" pointer-events="none" width="100%" height="100%" requiredFeatures="http://www.w3.org/TR/SVG11/feature#Extensibility"><div xmlns="http://www.w3.org/1999/xhtml" style="display: flex; align-items: unsafe flex-start; justify-content: unsafe flex-end; width: 269px; height: 1px; padding-top: 8px; margin-left: 6px;"><div style="box-sizing: border-box; font-size: 0; text-align: right; max-height: 86px; overflow: hidden; color: #333333; "><div style="display: inline-block; font-size: 10px; font-family: Verdana; color: light-dark(#333333, #c1c1c1); line-height: 1.2; pointer-events: all; white-space: normal; word-wrap: normal; "><h1 style="font-size: 12px;"><font style="font-size: 12px;"><br></font></h1><p style="font-size: 12px;"><font style="font-size: 12px;">Lorem ipsum dolor sit amet, consectetur adipisicing elit, sed do eiusmod tempor incididunt ut labore et dolore magna aliqua.</font></p></div></div></div></foreignObject><text x="275" y="18" fill="#333333" font-family="Verdana" font-size="10px" text-anchor="end">Lorem ipsum dolor sit amet, consectetur adipisicing el...</text></switch></g></g></g></g><g data-cell-id="jNTM52YTxWMKljqT_B0W-5"><g transform="translate(0.5,0.5)"></g><g data-cell-id="jNTM52YTxWMKljqT_B0W-6"><g transform="translate(0.5,0.5)"><path d="M 425 94.5 L 425 84.5 L 425 74.5 L 582 74.5 L 583 84.5 L 582 94.5 Z" fill="#b85450" stroke="none" pointer-events="all" style="fill: light-dark(rgb(184, 84, 80), rgb(215, 129, 126));"></path></g><g><g><switch><foreignObject style="overflow: visible; text-align: left;" pointer-events="none" width="100%" height="100%" requiredFeatures="http://www.w3.org/TR/SVG11/feature#Extensibility"><div xmlns="http://www.w3.org/1999/xhtml" style="display: flex; align-items: unsafe center; justify-content: unsafe center; width: 1px; height: 1px; padding-top: 85px; margin-left: 504px;"><div style="box-sizing: border-box; font-size: 0; text-align: center; color: #FFFFFF; "><div style="display: inline-block; font-size: 14px; font-family: Verdana; color: light-dark(#FFFFFF, #121212); line-height: 1.2; pointer-events: all; font-weight: bold; white-space: nowrap; ">Label</div></div></div></foreignObject><text x="504" y="89" fill="#FFFFFF" font-family="Verdana" font-size="14px" text-anchor="middle" font-weight="bold">Label</text></switch></g></g></g><g data-cell-id="jNTM52YTxWMKljqT_B0W-7"><g transform="translate(0.5,0.5)"><path d="M 284 73 C 284 67.48 315.56 63 354.5 63 C 393.44 63 425 67.48 425 73 L 425 96 C 425 101.52 393.44 106 354.5 106 C 315.56 106 284 101.52 284 96 Z" fill="#ea6b66" stroke="none" pointer-events="all" style="fill: light-dark(rgb(234, 107, 102), rgb(208, 99, 95));"></path><path d="M 284 73 C 284 78.52 315.56 83 354.5 83 C 393.44 83 425 78.52 425 73 L 425 96 C 425 101.52 393.44 106 354.5 106 C 315.56 106 284 101.52 284 96 Z" fill="url(#drawio-svg-xxH6y_M5mEEb7-QHA4yB-gradient-light-dark_000000_ededed_-0.4-light-dark_ffffff_121212_-0.4-e-0)" stroke="none" pointer-events="all" style="fill: url(&quot;#drawio-svg-xxH6y_M5mEEb7-QHA4yB-gradient-light-dark_000000_ededed_-0.4-light-dark_ffffff_121212_-0.4-e-0&quot;);"></path><path d="M 284 73 C 284 67.48 315.56 63 354.5 63 C 393.44 63 425 67.48 425 73 L 425 96 C 425 101.52 393.44 106 354.5 106 C 315.56 106 284 101.52 284 96 Z" fill="none" stroke="none" pointer-events="all"></path></g></g><g data-cell-id="jNTM52YTxWMKljqT_B0W-8"><g transform="translate(0.5,0.5)"><rect x="425" y="74.5" width="283" height="82" fill="none" stroke="none" pointer-events="all"></rect></g><g><g><switch><foreignObject style="overflow: visible; text-align: left;" pointer-events="none" width="100%" height="100%" requiredFeatures="http://www.w3.org/TR/SVG11/feature#Extensibility"><div xmlns="http://www.w3.org/1999/xhtml" style="display: flex; align-items: unsafe flex-start; justify-content: unsafe flex-start; width: 269px; height: 1px; padding-top: 68px; margin-left: 433px;"><div style="box-sizing: border-box; font-size: 0; text-align: left; max-height: 86px; overflow: hidden; color: #333333; "><div style="display: inline-block; font-size: 10px; font-family: Verdana; color: light-dark(#333333, #c1c1c1); line-height: 1.2; pointer-events: all; white-space: normal; word-wrap: normal; "><h1 style="font-size: 12px;"><font style="font-size: 12px;"><br></font></h1><p style="font-size: 12px;"><font style="font-size: 12px;">Lorem ipsum dolor sit amet, consectetur adipisicing elit, sed do eiusmod tempor incididunt ut labore et dolore magna aliqua.</font></p></div></div></div></foreignObject><text x="433" y="78" fill="#333333" font-family="Verdana" font-size="10px">Lorem ipsum dolor sit amet, consectetur adipisicing el...</text></switch></g></g></g></g><g data-cell-id="jNTM52YTxWMKljqT_B0W-9"><g transform="translate(0.5,0.5)"></g><g data-cell-id="jNTM52YTxWMKljqT_B0W-10"><g transform="translate(0.5,0.5)"><path d="M 132 157 L 132 147 L 132 137 L 289 137 L 290 147 L 289 157 Z" fill="#7f628c" stroke="none" pointer-events="all" style="fill: light-dark(rgb(127, 98, 140), rgb(162, 137, 173));"></path></g><g><g><switch><foreignObject style="overflow: visible; text-align: left;" pointer-events="none" width="100%" height="100%" requiredFeatures="http://www.w3.org/TR/SVG11/feature#Extensibility"><div xmlns="http://www.w3.org/1999/xhtml" style="display: flex; align-items: unsafe center; justify-content: unsafe center; width: 1px; height: 1px; padding-top: 147px; margin-left: 211px;"><div style="box-sizing: border-box; font-size: 0; text-align: center; color: #FFFFFF; "><div style="display: inline-block; font-size: 14px; font-family: Verdana; color: light-dark(#FFFFFF, #121212); line-height: 1.2; pointer-events: all; font-weight: bold; white-space: nowrap; ">Label</div></div></div></foreignObject><text x="211" y="151" fill="#FFFFFF" font-family="Verdana" font-size="14px" text-anchor="middle" font-weight="bold">Label</text></switch></g></g></g><g data-cell-id="jNTM52YTxWMKljqT_B0W-11"><g transform="translate(0.5,0.5)"><path d="M 283 133 C 283 127.48 314.56 123 353.5 123 C 392.44 123 424 127.48 424 133 L 424 156 C 424 161.52 392.44 166 353.5 166 C 314.56 166 283 161.52 283 156 Z" fill="#a680b8" stroke="none" pointer-events="all" style="fill: light-dark(rgb(166, 128, 184), rgb(139, 106, 154));"></path><path d="M 283 133 C 283 138.52 314.56 143 353.5 143 C 392.44 143 424 138.52 424 133 L 424 156 C 424 161.52 392.44 166 353.5 166 C 314.56 166 283 161.52 283 156 Z" fill="url(#drawio-svg-xxH6y_M5mEEb7-QHA4yB-gradient-light-dark_000000_ededed_-0.4-light-dark_ffffff_121212_-0.4-e-0)" stroke="none" pointer-events="all" style="fill: url(&quot;#drawio-svg-xxH6y_M5mEEb7-QHA4yB-gradient-light-dark_000000_ededed_-0.4-light-dark_ffffff_121212_-0.4-e-0&quot;);"></path><path d="M 283 133 C 283 127.48 314.56 123 353.5 123 C 392.44 123 424 127.48 424 133 L 424 156 C 424 161.52 392.44 166 353.5 166 C 314.56 166 283 161.52 283 156 Z" fill="none" stroke="none" pointer-events="all"></path></g></g><g data-cell-id="jNTM52YTxWMKljqT_B0W-12"><g transform="translate(0.5,0.5)"><rect x="0" y="133.5" width="283" height="82" fill="none" stroke="none" pointer-events="all"></rect></g><g><g><switch><foreignObject style="overflow: visible; text-align: left;" pointer-events="none" width="100%" height="100%" requiredFeatures="http://www.w3.org/TR/SVG11/feature#Extensibility"><div xmlns="http://www.w3.org/1999/xhtml" style="display: flex; align-items: unsafe flex-start; justify-content: unsafe flex-end; width: 269px; height: 1px; padding-top: 127px; margin-left: 6px;"><div style="box-sizing: border-box; font-size: 0; text-align: right; max-height: 86px; overflow: hidden; color: #333333; "><div style="display: inline-block; font-size: 10px; font-family: Verdana; color: light-dark(#333333, #c1c1c1); line-height: 1.2; pointer-events: all; white-space: normal; word-wrap: normal; "><h1 style="font-size: 12px;"><font style="font-size: 12px;"><br></font></h1><p style="font-size: 12px;"><font style="font-size: 12px;">Lorem ipsum dolor sit amet, consectetur adipisicing elit, sed do eiusmod tempor incididunt ut labore et dolore magna aliqua.</font></p></div></div></div></foreignObject><text x="275" y="137" fill="#333333" font-family="Verdana" font-size="10px" text-anchor="end">Lorem ipsum dolor sit amet, consectetur adipisicing el...</text></switch></g></g></g></g><g data-cell-id="jNTM52YTxWMKljqT_B0W-13"><g transform="translate(0.5,0.5)"></g><g data-cell-id="jNTM52YTxWMKljqT_B0W-14"><g transform="translate(0.5,0.5)"><path d="M 425 214.5 L 425 204.5 L 425 194.5 L 582 194.5 L 583 204.5 L 582 214.5 Z" fill="#e6c35c" stroke="none" pointer-events="all" style="fill: light-dark(rgb(230, 195, 92), rgb(99, 69, 0));"></path></g><g><g><switch><foreignObject style="overflow: visible; text-align: left;" pointer-events="none" width="100%" height="100%" requiredFeatures="http://www.w3.org/TR/SVG11/feature#Extensibility"><div xmlns="http://www.w3.org/1999/xhtml" style="display: flex; align-items: unsafe center; justify-content: unsafe center; width: 1px; height: 1px; padding-top: 205px; margin-left: 504px;"><div style="box-sizing: border-box; font-size: 0; text-align: center; color: #FFFFFF; "><div style="display: inline-block; font-size: 14px; font-family: Verdana; color: light-dark(#FFFFFF, #121212); line-height: 1.2; pointer-events: all; font-weight: bold; white-space: nowrap; ">Label</div></div></div></foreignObject><text x="504" y="209" fill="#FFFFFF" font-family="Verdana" font-size="14px" text-anchor="middle" font-weight="bold">Label</text></switch></g></g></g><g data-cell-id="jNTM52YTxWMKljqT_B0W-15"><g transform="translate(0.5,0.5)"><path d="M 284 193 C 284 187.48 315.56 183 354.5 183 C 393.44 183 425 187.48 425 193 L 425 216 C 425 221.52 393.44 226 354.5 226 C 315.56 226 284 221.52 284 216 Z" fill="#ffe599" stroke="none" pointer-events="all" style="fill: light-dark(rgb(255, 229, 153), rgb(62, 40, 0));"></path><path d="M 284 193 C 284 198.52 315.56 203 354.5 203 C 393.44 203 425 198.52 425 193 L 425 216 C 425 221.52 393.44 226 354.5 226 C 315.56 226 284 221.52 284 216 Z" fill="url(#drawio-svg-xxH6y_M5mEEb7-QHA4yB-gradient-light-dark_000000_ededed_-0.4-light-dark_ffffff_121212_-0.4-e-0)" stroke="none" pointer-events="all" style="fill: url(&quot;#drawio-svg-xxH6y_M5mEEb7-QHA4yB-gradient-light-dark_000000_ededed_-0.4-light-dark_ffffff_121212_-0.4-e-0&quot;);"></path><path d="M 284 193 C 284 187.48 315.56 183 354.5 183 C 393.44 183 425 187.48 425 193 L 425 216 C 425 221.52 393.44 226 354.5 226 C 315.56 226 284 221.52 284 216 Z" fill="none" stroke="none" pointer-events="all"></path></g></g><g data-cell-id="jNTM52YTxWMKljqT_B0W-16"><g transform="translate(0.5,0.5)"><rect x="425" y="194.5" width="283" height="82" fill="none" stroke="none" pointer-events="all"></rect></g><g><g><switch><foreignObject style="overflow: visible; text-align: left;" pointer-events="none" width="100%" height="100%" requiredFeatures="http://www.w3.org/TR/SVG11/feature#Extensibility"><div xmlns="http://www.w3.org/1999/xhtml" style="display: flex; align-items: unsafe flex-start; justify-content: unsafe flex-start; width: 269px; height: 1px; padding-top: 188px; margin-left: 433px;"><div style="box-sizing: border-box; font-size: 0; text-align: left; max-height: 86px; overflow: hidden; color: #333333; "><div style="display: inline-block; font-size: 10px; font-family: Verdana; color: light-dark(#333333, #c1c1c1); line-height: 1.2; pointer-events: all; white-space: normal; word-wrap: normal; "><h1 style="font-size: 12px;"><font style="font-size: 12px;"><br></font></h1><p style="font-size: 12px;"><font style="font-size: 12px;">Lorem ipsum dolor sit amet, consectetur adipisicing elit, sed do eiusmod tempor incididunt ut labore et dolore magna aliqua.</font></p></div></div></div></foreignObject><text x="433" y="198" fill="#333333" font-family="Verdana" font-size="10px">Lorem ipsum dolor sit amet, consectetur adipisicing el...</text></switch></g></g></g></g><g data-cell-id="jNTM52YTxWMKljqT_B0W-17"><g transform="translate(0.5,0.5)"></g><g data-cell-id="jNTM52YTxWMKljqT_B0W-18"><g transform="translate(0.5,0.5)"><path d="M 132 274.5 L 132 264.5 L 132 254.5 L 289 254.5 L 290 264.5 L 289 274.5 Z" fill="#6382b0" stroke="none" pointer-events="all" style="fill: light-dark(rgb(99, 130, 176), rgb(104, 131, 170));"></path></g><g><g><switch><foreignObject style="overflow: visible; text-align: left;" pointer-events="none" width="100%" height="100%" requiredFeatures="http://www.w3.org/TR/SVG11/feature#Extensibility"><div xmlns="http://www.w3.org/1999/xhtml" style="display: flex; align-items: unsafe center; justify-content: unsafe center; width: 1px; height: 1px; padding-top: 265px; margin-left: 211px;"><div style="box-sizing: border-box; font-size: 0; text-align: center; color: #FFFFFF; "><div style="display: inline-block; font-size: 14px; font-family: Verdana; color: light-dark(#FFFFFF, #121212); line-height: 1.2; pointer-events: all; font-weight: bold; white-space: nowrap; ">Label</div></div></div></foreignObject><text x="211" y="269" fill="#FFFFFF" font-family="Verdana" font-size="14px" text-anchor="middle" font-weight="bold">Label</text></switch></g></g></g><g data-cell-id="jNTM52YTxWMKljqT_B0W-19"><g transform="translate(0.5,0.5)"><path d="M 283 253 C 283 247.48 314.56 243 353.5 243 C 392.44 243 424 247.48 424 253 L 424 276 C 424 281.52 392.44 286 353.5 286 C 314.56 286 283 281.52 283 276 Z" fill="#7ea6e0" stroke="none" pointer-events="all" style="fill: light-dark(rgb(126, 166, 224), rgb(67, 102, 151));"></path><path d="M 283 253 C 283 258.52 314.56 263 353.5 263 C 392.44 263 424 258.52 424 253 L 424 276 C 424 281.52 392.44 286 353.5 286 C 314.56 286 283 281.52 283 276 Z" fill="url(#drawio-svg-xxH6y_M5mEEb7-QHA4yB-gradient-light-dark_000000_ededed_-0.4-light-dark_ffffff_121212_-0.4-e-0)" stroke="none" pointer-events="all" style="fill: url(&quot;#drawio-svg-xxH6y_M5mEEb7-QHA4yB-gradient-light-dark_000000_ededed_-0.4-light-dark_ffffff_121212_-0.4-e-0&quot;);"></path><path d="M 283 253 C 283 247.48 314.56 243 353.5 243 C 392.44 243 424 247.48 424 253 L 424 276 C 424 281.52 392.44 286 353.5 286 C 314.56 286 283 281.52 283 276 Z" fill="none" stroke="none" pointer-events="all"></path></g></g><g data-cell-id="jNTM52YTxWMKljqT_B0W-20"><g transform="translate(0.5,0.5)"><rect x="0" y="254.5" width="283" height="82" fill="none" stroke="none" pointer-events="all"></rect></g><g><g><switch><foreignObject style="overflow: visible; text-align: left;" pointer-events="none" width="100%" height="100%" requiredFeatures="http://www.w3.org/TR/SVG11/feature#Extensibility"><div xmlns="http://www.w3.org/1999/xhtml" style="display: flex; align-items: unsafe flex-start; justify-content: unsafe flex-end; width: 269px; height: 1px; padding-top: 248px; margin-left: 6px;"><div style="box-sizing: border-box; font-size: 0; text-align: right; max-height: 86px; overflow: hidden; color: #333333; "><div style="display: inline-block; font-size: 10px; font-family: Verdana; color: light-dark(#333333, #c1c1c1); line-height: 1.2; pointer-events: all; white-space: normal; word-wrap: normal; "><h1 style="font-size: 12px;"><font style="font-size: 12px;"><br></font></h1><p style="font-size: 12px;"><font style="font-size: 12px;">Lorem ipsum dolor sit amet, consectetur adipisicing elit, sed do eiusmod tempor incididunt ut labore et dolore magna aliqua.</font></p></div></div></div></foreignObject><text x="275" y="258" fill="#333333" font-family="Verdana" font-size="10px" text-anchor="end">Lorem ipsum dolor sit amet, consectetur adipisicing el...</text></switch></g></g></g></g><g data-cell-id="jNTM52YTxWMKljqT_B0W-21"><g transform="translate(0.5,0.5)"></g><g data-cell-id="jNTM52YTxWMKljqT_B0W-22"><g transform="translate(0.5,0.5)"><path d="M 425 334.5 L 425 324.5 L 425 314.5 L 582 314.5 L 583 324.5 L 582 334.5 Z" fill="#719c59" stroke="none" pointer-events="all" style="fill: light-dark(rgb(113, 156, 89), rgb(90, 127, 69));"></path></g><g><g><switch><foreignObject style="overflow: visible; text-align: left;" pointer-events="none" width="100%" height="100%" requiredFeatures="http://www.w3.org/TR/SVG11/feature#Extensibility"><div xmlns="http://www.w3.org/1999/xhtml" style="display: flex; align-items: unsafe center; justify-content: unsafe center; width: 1px; height: 1px; padding-top: 325px; margin-left: 504px;"><div style="box-sizing: border-box; font-size: 0; text-align: center; color: #FFFFFF; "><div style="display: inline-block; font-size: 14px; font-family: Verdana; color: light-dark(#FFFFFF, #121212); line-height: 1.2; pointer-events: all; font-weight: bold; white-space: nowrap; ">Label</div></div></div></foreignObject><text x="504" y="329" fill="#FFFFFF" font-family="Verdana" font-size="14px" text-anchor="middle" font-weight="bold">Label</text></switch></g></g></g><g data-cell-id="jNTM52YTxWMKljqT_B0W-23"><g transform="translate(0.5,0.5)"><path d="M 284 313 C 284 307.48 315.56 303 354.5 303 C 393.44 303 425 307.48 425 313 L 425 336 C 425 341.52 393.44 346 354.5 346 C 315.56 346 284 341.52 284 336 Z" fill="#97d077" stroke="none" pointer-events="all" style="fill: light-dark(rgb(151, 208, 119), rgb(41, 90, 13));"></path><path d="M 284 313 C 284 318.52 315.56 323 354.5 323 C 393.44 323 425 318.52 425 313 L 425 336 C 425 341.52 393.44 346 354.5 346 C 315.56 346 284 341.52 284 336 Z" fill="url(#drawio-svg-xxH6y_M5mEEb7-QHA4yB-gradient-light-dark_000000_ededed_-0.4-light-dark_ffffff_121212_-0.4-e-0)" stroke="none" pointer-events="all" style="fill: url(&quot;#drawio-svg-xxH6y_M5mEEb7-QHA4yB-gradient-light-dark_000000_ededed_-0.4-light-dark_ffffff_121212_-0.4-e-0&quot;);"></path><path d="M 284 313 C 284 307.48 315.56 303 354.5 303 C 393.44 303 425 307.48 425 313 L 425 336 C 425 341.52 393.44 346 354.5 346 C 315.56 346 284 341.52 284 336 Z" fill="none" stroke="none" pointer-events="all"></path></g></g><g data-cell-id="jNTM52YTxWMKljqT_B0W-24"><g transform="translate(0.5,0.5)"><rect x="425" y="314.5" width="283" height="82" fill="none" stroke="none" pointer-events="all"></rect></g><g><g><switch><foreignObject style="overflow: visible; text-align: left;" pointer-events="none" width="100%" height="100%" requiredFeatures="http://www.w3.org/TR/SVG11/feature#Extensibility"><div xmlns="http://www.w3.org/1999/xhtml" style="display: flex; align-items: unsafe flex-start; justify-content: unsafe flex-start; width: 269px; height: 1px; padding-top: 308px; margin-left: 433px;"><div style="box-sizing: border-box; font-size: 0; text-align: left; max-height: 86px; overflow: hidden; color: #333333; "><div style="display: inline-block; font-size: 10px; font-family: Verdana; color: light-dark(#333333, #c1c1c1); line-height: 1.2; pointer-events: all; white-space: normal; word-wrap: normal; "><h1 style="font-size: 12px;"><font style="font-size: 12px;"><br></font></h1><p style="font-size: 12px;"><font style="font-size: 12px;">Lorem ipsum dolor sit amet, consectetur adipisicing elit, sed do eiusmod tempor incididunt ut labore et dolore magna aliqua.</font></p></div></div></div></foreignObject><text x="433" y="318" fill="#333333" font-family="Verdana" font-size="10px">Lorem ipsum dolor sit amet, consectetur adipisicing el...</text></switch></g></g></g></g></g></g></g><switch><g requiredFeatures="http://www.w3.org/TR/SVG11/feature#Extensibility"></g><a transform="translate(0,-5)" xlink:href="https://www.drawio.com/doc/faq/svg-export-text-problems" target="_blank"><text text-anchor="middle" font-size="10px" x="50%" y="100%">Text is not SVG - cannot display</text></a></switch></svg>