<svg xmlns="http://www.w3.org/2000/svg" style="background: transparent; background-color: transparent;" xmlns:xlink="http://www.w3.org/1999/xlink" version="1.1" width="357px" height="461px" viewBox="0 0 357 461"><defs></defs><g><g data-cell-id="0"><g data-cell-id="1"><g data-cell-id="04uPni8EBAENN_QoJmwS-12"><g transform="translate(0.5,0.5)"><path d="M 59.5 -16 L 109.5 69 L 59.5 154 Z" fill="#cccccc" stroke="none" transform="rotate(90,84.5,69)" pointer-events="all" style="fill: light-dark(rgb(204, 204, 204), rgb(62, 62, 62));"></path></g></g><g data-cell-id="04uPni8EBAENN_QoJmwS-19"><g transform="translate(0.5,0.5)"><path d="M 107 240 L 107 220 L 107 221 L 107 200" fill="none" stroke="#4495d1" stroke-miterlimit="10" pointer-events="stroke" style="stroke: light-dark(rgb(68, 149, 209), rgb(61, 131, 183));"></path></g></g><g data-cell-id="04uPni8EBAENN_QoJmwS-2"><g transform="translate(0.5,0.5)"><rect x="53" y="240" width="108" height="104" fill="none" stroke="none" pointer-events="all"></rect><path d="M 96.74 324.81 L 53.21 299.54 L 160.77 299.54 L 115.89 324.81 Z" fill="#d1d3d4" stroke="none" pointer-events="all" style="fill: light-dark(rgb(209, 211, 212), rgb(55, 56, 57));"></path><path d="M 160.81 299.54 L 53.19 299.54 L 53.19 266.66 L 160.81 266.66 Z" fill="#ef8f21" stroke="none" pointer-events="all" style="fill: light-dark(rgb(239, 143, 33), rgb(175, 93, 0));"></path><rect x="53" y="240" width="0" height="0" fill="none" stroke="none" pointer-events="all"></rect><path d="M 136.46 264.3 L 136.46 240 L 161 240 L 161 264.3 Z M 108.63 264.3 L 108.63 240 L 133.19 240 L 133.19 264.3 Z M 80.81 264.3 L 80.81 240 L 105.37 240 L 105.37 264.3 Z M 53 264.3 L 53 240 L 77.56 240 L 77.56 264.3 Z M 77.38 344 C 73.71 344 70.24 340.95 70.24 336.88 L 70.24 324.81 L 136.39 324.81 C 141.06 324.81 143.76 328.56 143.76 331.92 L 143.76 344 Z" fill="#4495d1" stroke="none" pointer-events="all" style="fill: light-dark(rgb(68, 149, 209), rgb(61, 131, 183));"></path><path d="M 148.1 255.62 L 148.54 249.03 L 150.55 249.03 L 151.79 253.24 L 153.16 249.03 L 155.14 249.03 L 155.5 255.62 L 154.03 255.62 L 153.81 250.61 L 152.27 255.62 L 151.08 255.62 L 149.74 250.78 L 149.5 255.62 Z M 143.51 255.62 L 141.36 249.03 L 143.02 249.03 L 144.44 253.97 L 145.93 249.03 L 147.54 249.03 L 145.28 255.62 Z M 120.29 255.63 L 120.72 249.05 L 122.74 249.05 L 123.96 253.24 L 125.34 249.05 L 127.32 249.05 L 127.69 255.63 L 126.22 255.63 L 125.99 250.61 L 124.45 255.63 L 123.26 255.63 L 121.93 250.78 L 121.69 255.63 Z M 115.7 255.63 L 113.55 249.05 L 115.21 249.05 L 116.63 253.99 L 118.12 249.05 L 119.71 249.05 L 117.47 255.63 Z M 92.47 255.62 L 92.91 249.03 L 94.9 249.03 L 96.15 253.23 L 97.53 249.03 L 99.51 249.03 L 99.88 255.62 L 98.41 255.62 L 98.18 250.61 L 96.64 255.62 L 95.43 255.62 L 94.12 250.78 L 93.85 255.62 Z M 87.89 255.62 L 85.73 249.03 L 87.38 249.03 L 88.8 253.97 L 90.3 249.03 L 91.89 249.03 L 89.65 255.62 Z M 64.64 255.62 L 65.1 249.03 L 67.09 249.03 L 68.33 253.24 L 69.7 249.03 L 71.68 249.03 L 72.06 255.62 L 70.59 255.62 L 70.36 250.61 L 68.81 255.62 L 67.62 255.62 L 66.29 250.78 L 66.04 255.62 Z M 60.05 255.62 L 57.92 249.03 L 59.56 249.03 L 60.98 253.97 L 62.47 249.03 L 64.08 249.03 L 61.82 255.62 Z M 132.47 336.15 L 132.47 332.66 L 137.98 332.65 L 137.98 336.15 Z M 111.85 338.07 L 111.85 330.76 L 130.35 330.76 L 130.35 338.05 Z M 106.05 337.14 C 104.95 337.14 103.57 336.2 103.57 334.35 C 103.57 332.94 104.69 331.66 106.05 331.66 C 107.39 331.66 108.58 332.85 108.58 334.35 C 108.58 336.06 107.33 337.14 106.05 337.14 Z M 81.79 338.07 L 81.79 330.74 L 100.3 330.76 L 100.3 338.07 Z M 77.54 336.1 C 76.84 336.1 76.02 335.45 76.02 334.4 C 76.02 333.39 76.79 332.72 77.54 332.72 C 78.38 332.72 79.12 333.46 79.12 334.41 C 79.12 335.18 78.52 336.1 77.54 336.1 Z M 86.12 287.08 L 83.23 278.2 L 85.45 278.2 L 87.4 284.79 L 89.37 278.2 L 91.54 278.2 L 88.5 287.08 Z M 92.31 287.08 L 92.89 278.2 L 95.59 278.2 L 97.29 283.84 L 99.09 278.2 L 101.77 278.2 L 102.27 287.08 L 100.28 287.08 L 100.02 280.4 L 97.92 287.08 L 96.32 287.08 L 94.52 280.49 L 94.19 287.08 Z M 105 287.08 L 103.1 280.66 L 105.18 280.66 L 106.09 285.26 L 107.28 280.66 L 108.89 280.66 L 110.03 285.12 L 110.99 280.66 L 113 280.66 L 110.97 287.08 L 109.08 287.08 L 108.03 283.26 L 106.91 287.08 Z M 120.9 287.15 L 120.9 280.66 L 122.61 280.66 L 122.7 281.89 C 123.17 280.72 124.19 280.39 124.94 280.56 L 124.94 282.45 C 124.54 282.36 124.14 282.35 123.75 282.5 C 123.28 282.69 122.98 283.13 122.96 283.75 L 122.96 287.15 Z M 131.4 286.89 C 130.6 287.18 129.76 287.29 128.88 287.29 C 126.69 287.2 125.61 285.97 125.52 284.1 C 125.55 281.51 127.29 280.54 128.71 280.51 C 130.77 280.47 131.44 281.77 131.7 282.92 C 131.77 283.39 131.82 283.89 131.68 284.55 L 127.48 284.55 C 127.55 285.21 128 285.55 128.72 285.71 C 129.46 285.83 130.37 285.76 131.12 285.5 Z M 127.46 283.16 L 129.86 283.16 C 129.84 282.59 129.63 281.93 128.78 281.86 C 127.93 281.86 127.53 282.48 127.46 283.16 Z M 117.59 287.15 L 117.43 286.45 C 117.06 286.92 116.54 287.23 115.75 287.3 C 114.93 287.34 114.02 287.06 113.6 286.12 C 113.13 284.98 113.62 283.91 114.51 283.42 C 115.3 282.97 116.08 282.83 117.26 282.83 C 117.31 282.38 117.06 282.05 116.52 281.93 C 115.82 281.84 114.98 281.95 114.28 282.4 L 113.88 281.08 C 114.81 280.61 115.59 280.54 116.36 280.53 C 118.36 280.49 119.31 281.53 119.31 283.28 L 119.32 285.93 C 119.31 286.35 119.36 286.75 119.41 287.15 Z M 117.33 284.1 C 116.19 284.1 115.49 284.34 115.42 285.05 C 115.42 285.62 115.75 285.86 116.22 285.88 C 116.87 285.88 117.33 285.38 117.33 284.88 Z" fill="#ffffff" stroke="none" pointer-events="all" style="fill: light-dark(rgb(255, 255, 255), rgb(18, 18, 18));"></path></g></g><g data-cell-id="04uPni8EBAENN_QoJmwS-20"><g transform="translate(0.5,0.5)"><path d="M 284 240 L 284 220 L 284 221 L 284 200" fill="none" stroke="#4495d1" stroke-miterlimit="10" pointer-events="stroke" style="stroke: light-dark(rgb(68, 149, 209), rgb(61, 131, 183));"></path></g></g><g data-cell-id="04uPni8EBAENN_QoJmwS-3"><g transform="translate(0.5,0.5)"><rect x="230" y="240" width="108" height="104" fill="none" stroke="none" pointer-events="all"></rect><path d="M 273.74 324.81 L 230.21 299.54 L 337.77 299.54 L 292.89 324.81 Z" fill="#d1d3d4" stroke="none" pointer-events="all" style="fill: light-dark(rgb(209, 211, 212), rgb(55, 56, 57));"></path><rect x="230" y="240" width="0" height="0" fill="none" stroke="none" pointer-events="all"></rect><path d="M 337.81 299.54 L 230.19 299.54 L 230.19 266.66 L 337.81 266.66 Z" fill="#ef8f21" stroke="none" pointer-events="all" style="fill: light-dark(rgb(239, 143, 33), rgb(175, 93, 0));"></path><rect x="230" y="240" width="0" height="0" fill="none" stroke="none" pointer-events="all"></rect><path d="M 313.46 264.3 L 313.46 240 L 338 240 L 338 264.3 Z M 285.63 264.3 L 285.63 240 L 310.19 240 L 310.19 264.3 Z M 257.81 264.3 L 257.81 240 L 282.37 240 L 282.37 264.3 Z M 230 264.3 L 230 240 L 254.56 240 L 254.56 264.3 Z M 254.38 344 C 250.71 344 247.24 340.95 247.24 336.88 L 247.24 324.81 L 313.39 324.81 C 318.06 324.81 320.76 328.56 320.76 331.92 L 320.76 344 Z" fill="#4495d1" stroke="none" pointer-events="all" style="fill: light-dark(rgb(68, 149, 209), rgb(61, 131, 183));"></path><path d="M 325.1 255.62 L 325.54 249.03 L 327.55 249.03 L 328.79 253.24 L 330.16 249.03 L 332.14 249.03 L 332.5 255.62 L 331.03 255.62 L 330.81 250.61 L 329.27 255.62 L 328.08 255.62 L 326.74 250.78 L 326.5 255.62 Z M 320.51 255.62 L 318.36 249.03 L 320.02 249.03 L 321.44 253.97 L 322.93 249.03 L 324.54 249.03 L 322.28 255.62 Z M 297.29 255.63 L 297.72 249.05 L 299.74 249.05 L 300.96 253.24 L 302.34 249.05 L 304.32 249.05 L 304.69 255.63 L 303.22 255.63 L 302.99 250.61 L 301.45 255.63 L 300.26 255.63 L 298.93 250.78 L 298.69 255.63 Z M 292.7 255.63 L 290.55 249.05 L 292.21 249.05 L 293.63 253.99 L 295.12 249.05 L 296.71 249.05 L 294.47 255.63 Z M 269.47 255.62 L 269.91 249.03 L 271.9 249.03 L 273.15 253.23 L 274.53 249.03 L 276.51 249.03 L 276.88 255.62 L 275.41 255.62 L 275.18 250.61 L 273.64 255.62 L 272.43 255.62 L 271.12 250.78 L 270.85 255.62 Z M 264.89 255.62 L 262.73 249.03 L 264.38 249.03 L 265.8 253.97 L 267.3 249.03 L 268.89 249.03 L 266.65 255.62 Z M 241.64 255.62 L 242.1 249.03 L 244.09 249.03 L 245.33 253.24 L 246.7 249.03 L 248.68 249.03 L 249.06 255.62 L 247.59 255.62 L 247.36 250.61 L 245.81 255.62 L 244.62 255.62 L 243.29 250.78 L 243.04 255.62 Z M 237.05 255.62 L 234.92 249.03 L 236.56 249.03 L 237.98 253.97 L 239.47 249.03 L 241.08 249.03 L 238.82 255.62 Z M 303.32 287.11 L 300.44 278.19 L 302.68 278.17 L 304.62 284.74 L 306.6 278.17 L 308.75 278.17 L 305.72 287.11 Z M 296.73 284.3 L 296.73 282.97 L 300.24 282.97 L 300.24 284.3 Z M 292.05 287.11 C 292.05 284.36 292.09 282.17 292 280.63 L 293.75 280.63 L 293.82 281.86 C 294.31 280.63 295.34 280.35 296.08 280.51 L 296.06 282.4 C 294.87 282.17 294.08 282.71 294.08 283.84 L 294.08 287.11 Z M 286.52 283.14 L 288.92 283.14 C 288.94 282.62 288.71 281.83 287.73 281.83 C 287.13 281.83 286.59 282.36 286.52 283.14 Z M 290.46 286.83 C 289.43 287.27 288.41 287.29 287.41 287.22 C 285.59 286.96 284.6 285.78 284.6 283.84 C 284.65 282.03 285.86 280.47 287.87 280.47 C 289.44 280.46 290.44 281.34 290.76 282.88 C 290.88 283.51 290.81 283.99 290.76 284.51 L 286.52 284.51 C 286.59 285.08 286.94 285.53 287.87 285.71 C 288.78 285.81 289.51 285.69 290.2 285.48 Z M 280.18 285.71 C 281.13 285.71 281.58 284.89 281.58 283.82 C 281.58 282.81 281.06 282.05 280.24 282.05 C 279.34 282.05 278.94 282.85 278.94 283.33 L 278.94 284.41 C 278.94 285.19 279.5 285.71 280.18 285.71 Z M 276.91 289.75 C 276.93 286.63 276.96 283.44 276.86 280.63 L 278.63 280.63 L 278.71 281.58 C 279.31 280.68 280.24 280.42 281.15 280.47 C 282.69 280.61 283.81 282.12 283.63 284.11 C 283.53 285.48 283.04 286.63 281.44 287.16 C 280.66 287.41 279.52 287.27 278.94 286.47 L 278.92 289.75 Z M 270.24 290.06 L 269.82 288.33 C 270.73 288.15 271.27 287.63 271.52 287.22 C 271.68 286.99 271.69 286.83 271.57 286.57 L 269.17 280.61 L 271.41 280.61 L 272.78 285 L 273.87 280.61 L 276.05 280.61 L 274.29 285.53 C 273.76 286.83 273.43 287.68 272.73 288.62 C 272.03 289.5 271.2 289.9 270.24 290.06 Z M 260.72 287.11 L 260.72 278.17 L 262.77 278.17 L 262.77 281.6 L 266.15 281.6 L 266.13 278.17 L 268.18 278.17 L 268.19 287.11 L 266.15 287.11 L 266.15 283.37 L 262.79 283.39 L 262.77 287.11 Z M 309.47 336.15 L 309.47 332.66 L 314.98 332.65 L 314.98 336.15 Z M 288.85 338.07 L 288.85 330.76 L 307.35 330.76 L 307.35 338.05 Z M 283.05 337.14 C 281.95 337.14 280.57 336.2 280.57 334.35 C 280.57 332.94 281.69 331.66 283.05 331.66 C 284.39 331.66 285.58 332.85 285.58 334.35 C 285.58 336.06 284.33 337.14 283.05 337.14 Z M 258.79 338.07 L 258.79 330.74 L 277.3 330.76 L 277.3 338.07 Z M 254.54 336.1 C 253.84 336.1 253.02 335.45 253.02 334.4 C 253.02 333.39 253.79 332.72 254.54 332.72 C 255.38 332.72 256.12 333.46 256.12 334.41 C 256.12 335.18 255.52 336.1 254.54 336.1 Z" fill="#ffffff" stroke="none" pointer-events="all" style="fill: light-dark(rgb(255, 255, 255), rgb(18, 18, 18));"></path></g></g><g data-cell-id="04uPni8EBAENN_QoJmwS-14"><g transform="translate(0.5,0.5)"><path d="M 84 162 L 84 182 L 84 180 L 84 200" fill="none" stroke="#4495d1" stroke-miterlimit="10" pointer-events="stroke" style="stroke: light-dark(rgb(68, 149, 209), rgb(61, 131, 183));"></path></g></g><g data-cell-id="04uPni8EBAENN_QoJmwS-6"><g transform="translate(0.5,0.5)"><path d="M 53.26 162 C 49.93 162 46 159.11 46 154.79 L 46 142.31 L 114.56 142.31 C 119.24 142.31 122 146.34 122 149.45 L 122 162 Z" fill="#4495d1" stroke="none" pointer-events="all" style="fill: light-dark(rgb(68, 149, 209), rgb(61, 131, 183));"></path><path d="M 61.2 134.84 L 61.2 90 L 106.8 90 L 106.8 134.84 Z" fill="#ef8f21" stroke="none" pointer-events="all" style="fill: light-dark(rgb(239, 143, 33), rgb(175, 93, 0));"></path><path d="M 99.67 112.82 L 99.67 97.01 L 83.15 97.01 L 83.15 95.08 L 99.59 95.08 C 101.29 95.06 101.51 96.02 101.51 97.19 L 101.51 112.82 Z M 84.51 112.76 L 84.51 102.16 L 95.37 102.16 L 95.37 112.76 Z M 66.49 109.09 L 66.49 106.32 L 75.91 106.32 L 67.46 97.97 L 69.45 96.04 L 77.92 104.39 L 77.92 95.08 L 80.7 95.08 L 80.7 109.09 Z M 73.44 123.48 L 73.44 112.86 L 84.3 112.86 L 84.3 123.48 Z M 87.28 129.74 L 87.28 126.99 L 96.71 126.99 L 88.24 118.66 L 90.22 116.72 L 98.71 125.05 L 98.71 115.77 L 101.51 115.77 L 101.51 129.74 Z M 68.33 129.74 C 67.1 129.74 66.49 129.3 66.49 127.54 L 66.49 112.32 L 68.33 112.32 L 68.33 127.82 L 84.85 127.82 L 84.85 129.74 Z M 110.33 153.95 L 110.33 150.36 L 116.02 150.36 L 116.02 153.95 Z M 89.01 155.9 L 89.01 148.41 L 108.14 148.41 L 108.14 155.9 Z M 83.05 154.97 C 81.73 154.97 80.43 153.85 80.43 152.1 C 80.43 150.6 81.63 149.35 83.07 149.35 C 84.57 149.35 85.62 150.78 85.62 152.1 C 85.62 153.75 84.47 154.97 83.05 154.97 Z M 57.96 155.9 L 57.96 148.41 L 77.07 148.41 L 77.07 155.9 Z M 53.52 153.89 C 52.65 153.89 51.98 153.05 51.98 152.18 C 51.98 151.24 52.67 150.44 53.52 150.44 C 54.55 150.44 55.16 151.3 55.16 152.18 C 55.16 153.11 54.45 153.89 53.52 153.89 Z M 87.08 110.25 L 92.78 110.25 L 92.78 104.65 L 87.08 104.65 Z M 76.04 120.97 L 81.73 120.97 L 81.73 115.39 L 76.04 115.39 Z" fill="#ffffff" stroke="none" pointer-events="all" style="fill: light-dark(rgb(255, 255, 255), rgb(18, 18, 18));"></path></g></g><g data-cell-id="04uPni8EBAENN_QoJmwS-15"><g transform="translate(0.5,0.5)"><path d="M 222.4 148.8 L 222.4 200" fill="none" stroke="#4495d1" stroke-miterlimit="10" pointer-events="stroke" style="stroke: light-dark(rgb(68, 149, 209), rgb(61, 131, 183));"></path></g></g><g data-cell-id="04uPni8EBAENN_QoJmwS-7"><g transform="translate(0.5,0.5)"><rect x="200" y="104" width="44.8" height="44.8" fill="none" stroke="none" pointer-events="all"></rect><path d="M 200 148.8 L 200 104 L 244.8 104 L 244.8 148.8 Z" fill="#4495d1" stroke="none" pointer-events="all" style="fill: light-dark(rgb(68, 149, 209), rgb(61, 131, 183));"></path><path d="M 207.39 124.75 L 210.89 124.75 C 211.83 119.23 216.21 115.19 221.82 114.93 C 226.14 114.83 229.29 117.02 230.8 118.87 L 227.88 120.98 L 237.51 125.25 L 236.4 114.79 L 233.61 116.78 C 230.78 113.44 226.76 111.51 222.16 111.47 C 214 111.47 207.96 118.08 207.39 124.75 Z M 207.94 138.19 L 210.97 136.2 C 213.72 139.34 217.76 141.33 222.32 141.33 C 230.7 141.33 236.5 134.46 237.05 128.01 L 233.55 128.01 C 232.85 133.15 228.53 137.71 222.3 137.85 C 219.43 137.89 216.29 136.77 213.9 134.26 L 216.73 132.37 L 207.29 127.67 Z" fill="#ffffff" stroke="none" pointer-events="all" style="fill: light-dark(rgb(255, 255, 255), rgb(18, 18, 18));"></path></g></g><g data-cell-id="04uPni8EBAENN_QoJmwS-21"><g transform="translate(0.5,0.5)"><path d="M 315.7 148.7 L 315.7 200" fill="none" stroke="#4495d1" stroke-miterlimit="10" pointer-events="stroke" style="stroke: light-dark(rgb(68, 149, 209), rgb(61, 131, 183));"></path></g></g><g data-cell-id="04uPni8EBAENN_QoJmwS-8"><g transform="translate(0.5,0.5)"><path d="M 293.5 115.01 L 293.5 103.5 L 337.9 103.5 L 337.9 115.01 Z M 295.48 119.98 L 295.48 115.38 L 335.47 115.38 L 335.47 119.98 Z M 293.5 131.88 L 293.5 120.34 L 337.9 120.34 L 337.9 131.88 Z M 295.48 136.82 L 295.48 132.22 L 335.47 132.22 L 335.47 136.82 Z M 293.5 148.7 L 293.5 137.19 L 337.9 137.19 L 337.9 148.7 Z" fill="#4495d1" stroke="none" pointer-events="all" style="fill: light-dark(rgb(68, 149, 209), rgb(61, 131, 183));"></path></g></g><g data-cell-id="04uPni8EBAENN_QoJmwS-9"><g transform="translate(0.5,0.5)"><path d="M 62 44.8 L 62 0 L 106.8 0 L 106.8 44.8 Z" fill="#ef8f21" stroke="none" pointer-events="all" style="fill: light-dark(rgb(239, 143, 33), rgb(175, 93, 0));"></path><path d="M 62.86 27.8 L 77.61 13.14 L 85.53 21.17 L 97.34 9.1 L 105.94 17.32 L 105.94 25.71 C 104.31 24.77 101.98 24.27 100.21 24.27 C 96.53 24.27 93.38 25.82 89.98 28.57 C 87.49 30.58 85.12 33.11 82.75 35.18 C 80.24 37.37 78.07 38.91 75.58 38.59 C 72.59 38.43 69.39 36.72 66.7 35.74 C 65.54 35.36 64.47 35.16 62.86 35.48 Z M 62.86 43.94 L 62.86 37.59 C 64.29 37.23 65.05 37.31 66.3 37.79 C 68.77 38.77 71.16 39.9 73.83 40.44 C 77.67 41.24 79.96 40.22 83.5 37.27 C 86.63 34.61 89.42 31.46 92.64 29.11 C 95.05 27.4 97.76 26.14 100.71 26.34 C 102.84 26.48 104.59 27.2 105.94 28.09 L 105.94 43.94 Z" fill="#ffffff" stroke="none" pointer-events="all" style="fill: light-dark(rgb(255, 255, 255), rgb(18, 18, 18));"></path></g></g><g data-cell-id="04uPni8EBAENN_QoJmwS-10"><g transform="translate(0.5,0.5)"><path d="M 124.02 44.8 L 124 0 L 168.78 0 L 168.8 44.78 Z" fill="#ef8f21" stroke="none" pointer-events="all" style="fill: light-dark(rgb(239, 143, 33), rgb(175, 93, 0));"></path><path d="M 149.38 20.37 L 149.36 3.74 C 158.87 3.86 166.07 11.39 165.93 20.69 C 165.97 23.26 165.22 26.26 163.72 28.67 Z M 143.68 22.84 L 143.68 6.49 C 137.14 6.53 127.1 12.62 127.72 24.39 C 127.8 26.94 128.78 29.59 129.53 31 Z M 159.84 32.2 C 157.18 36.96 151.7 40.98 144.52 41.06 C 134.31 41.06 126.83 32.59 126.83 23.59 C 126.83 12.64 135.52 5.61 144.54 5.61 L 144.54 23.34 Z" fill="#ffffff" stroke="none" pointer-events="all" style="fill: light-dark(rgb(255, 255, 255), rgb(18, 18, 18));"></path></g></g><g data-cell-id="04uPni8EBAENN_QoJmwS-11"><g transform="translate(0.5,0.5)"><path d="M 0 45.8 L 0 1 L 44.8 1 L 44.8 45.8 Z" fill="#ef8f21" stroke="none" pointer-events="all" style="fill: light-dark(rgb(239, 143, 33), rgb(175, 93, 0));"></path><path d="M 27.5 15.97 L 27.5 10.88 L 17.48 10.88 L 17.48 15.97 Z M 38.91 27.5 L 38.91 17.45 L 6.05 17.45 L 6.05 27.5 L 19.33 27.5 L 19.33 30.75 L 22.46 33.89 L 25.65 30.77 L 25.65 27.5 Z M 4.48 38.91 L 4.48 15.97 L 14.5 15.97 L 14.5 8.96 C 14.5 8.27 15.17 7.89 15.55 7.89 L 29.27 7.89 C 30.01 7.89 30.38 8.47 30.38 8.98 L 30.38 15.97 L 40.3 15.97 L 40.3 38.91 Z" fill="#ffffff" stroke="none" pointer-events="all" style="fill: light-dark(rgb(255, 255, 255), rgb(18, 18, 18));"></path></g></g><g data-cell-id="04uPni8EBAENN_QoJmwS-13"><g><path d="M 30 200 L 350 200" fill="none" stroke="#4495d1" stroke-width="10" stroke-miterlimit="10" pointer-events="stroke" style="stroke: light-dark(rgb(68, 149, 209), rgb(61, 131, 183));"></path></g></g><g data-cell-id="04uPni8EBAENN_QoJmwS-18"><g transform="translate(0.5,0.5)"></g><g data-cell-id="04uPni8EBAENN_QoJmwS-4"><g transform="translate(0.5,0.5)"><path d="M 146.07 422.64 C 142.29 420.04 138.08 420.39 138.08 420.39 C 138.08 420.39 136.39 408 127.09 408 C 116.79 408 115.3 417.32 115.3 417.32 C 115.3 417.32 110.03 413.2 104.65 417.73 C 99.28 422.25 102.45 428.37 102.45 428.37 C 102.45 428.37 99.46 428.62 97.07 430.7 C 94.79 432.7 93.97 433.92 93.81 436.07 C 93.5 440.41 97.2 445.81 102.54 445.92 C 107.15 446.01 108.88 443.65 108.88 443.65 C 108.88 443.65 112.33 449.6 120.42 449.6 C 128.71 449.6 131.61 444.76 131.61 444.76 C 131.61 444.76 134.77 447.95 140.25 447.6 C 145.57 447.25 151.75 442.87 152.08 435.18 C 152.3 429.72 149.37 424.92 146.07 422.64 Z" fill-opacity="0.2" fill="#1f9cd8" stroke="none" pointer-events="all" style="fill: light-dark(rgb(31, 156, 216), rgb(34, 141, 193));"></path></g></g><g data-cell-id="04uPni8EBAENN_QoJmwS-5"><g transform="translate(0.5,0.5)"><rect x="186.5" y="420.5" width="71.6" height="18.8" fill="none" stroke="none" pointer-events="all"></rect><path d="M 192.92 439.3 C 189.34 439.3 186.5 436.13 186.5 432.49 L 186.5 420.5 L 250.89 420.5 C 255.26 420.5 258.1 424.04 258.1 427.39 L 258.1 439.3 Z" fill="#4495d1" stroke="none" pointer-events="all" style="fill: light-dark(rgb(68, 149, 209), rgb(61, 131, 183));"></path><path d="M 247.55 431.96 L 247.55 428.38 L 253.02 428.38 L 253.02 431.96 Z M 227.29 433.82 L 227.29 426.52 L 245.44 426.52 L 245.44 433.82 Z M 221.39 432.9 C 220.04 432.9 218.64 431.65 218.64 430.14 C 218.64 428.95 219.64 427.36 221.45 427.36 C 223.06 427.36 224.12 428.76 224.12 430.19 C 224.12 431.97 222.9 432.9 221.39 432.9 Z M 197.84 433.82 L 197.84 426.52 L 216.09 426.52 L 216.09 433.82 Z M 193.7 431.86 C 192.87 431.86 192.16 431.1 192.16 430.13 C 192.19 429.13 192.95 428.46 193.71 428.46 C 194.56 428.46 195.24 429.26 195.24 430.13 C 195.24 431.2 194.51 431.86 193.7 431.86 Z" fill="#ffffff" stroke="none" pointer-events="all" style="fill: light-dark(rgb(255, 255, 255), rgb(18, 18, 18));"></path></g></g><g data-cell-id="04uPni8EBAENN_QoJmwS-17"><g transform="translate(0.5,0.5)"><rect x="84.5" y="400" width="185" height="60" fill="none" stroke="#4495d1" pointer-events="all" style="stroke: light-dark(rgb(68, 149, 209), rgb(61, 131, 183));"></rect></g></g></g></g></g></g></svg>