<svg xmlns="http://www.w3.org/2000/svg" style="background: transparent; background-color: transparent;" xmlns:xlink="http://www.w3.org/1999/xlink" version="1.1" width="310px" height="160px" viewBox="0 0 310 160"><defs></defs><g><g data-cell-id="0"><g data-cell-id="1"><g data-cell-id="882"><g transform="translate(0.5,0.5)"></g><g data-cell-id="883"><g transform="translate(0.5,0.5)"><path d="M 210 130 L 300 130 L 300 130 L 310 145 L 300 160 L 300 160 L 210 160 L 210 145 Z" fill="#e8edf0" stroke="none" pointer-events="all" style="fill: light-dark(rgb(232, 237, 240), rgb(30, 35, 37));"></path></g><g><g><switch><foreignObject style="overflow: visible; text-align: left;" pointer-events="none" width="100%" height="100%" requiredFeatures="http://www.w3.org/TR/SVG11/feature#Extensibility"><div xmlns="http://www.w3.org/1999/xhtml" style="display: flex; align-items: unsafe center; justify-content: unsafe center; width: 1px; height: 1px; padding-top: 145px; margin-left: 260px;"><div style="box-sizing: border-box; font-size: 0; text-align: center; color: #23445D; "><div style="display: inline-block; font-size: 12px; font-family: Helvetica; color: light-dark(#23445D, #a0bcd2); line-height: 1.2; pointer-events: all; white-space: nowrap; "><span>Disadvantage</span></div></div></div></foreignObject><text x="260" y="149" fill="#23445D" font-family="Helvetica" font-size="12px" text-anchor="middle">Disadvantage</text></switch></g></g></g><g data-cell-id="884"><g transform="translate(0.5,0.5)"><path d="M 120 130 L 210 130 L 210 130 L 220 145 L 210 160 L 210 160 L 120 160 L 120 145 Z" fill="#e85642" stroke="none" pointer-events="all" style="fill: light-dark(rgb(232, 86, 66), rgb(237, 112, 95));"></path></g></g><g data-cell-id="885"><g transform="translate(0.5,0.5)"><path d="M 0 130 L 90 130 L 90 130 L 100 145 L 90 160 L 90 160 L 0 160 L 0 145 Z" fill="#e8edf0" stroke="none" transform="rotate(180,50,145)" pointer-events="all" style="fill: light-dark(rgb(232, 237, 240), rgb(30, 35, 37));"></path></g><g><g><switch><foreignObject style="overflow: visible; text-align: left;" pointer-events="none" width="100%" height="100%" requiredFeatures="http://www.w3.org/TR/SVG11/feature#Extensibility"><div xmlns="http://www.w3.org/1999/xhtml" style="display: flex; align-items: unsafe center; justify-content: unsafe center; width: 1px; height: 1px; padding-top: 145px; margin-left: 50px;"><div style="box-sizing: border-box; font-size: 0; text-align: center; color: #23445D; "><div style="display: inline-block; font-size: 12px; font-family: Helvetica; color: light-dark(#23445D, #a0bcd2); line-height: 1.2; pointer-events: all; white-space: nowrap; "><span>Advantage</span></div></div></div></foreignObject><text x="50" y="149" fill="#23445D" font-family="Helvetica" font-size="12px" text-anchor="middle">Advantage</text></switch></g></g></g><g data-cell-id="886"><g transform="translate(0.5,0.5)"><path d="M 90 130 L 180 130 L 180 130 L 190 145 L 180 160 L 180 160 L 90 160 L 90 145 Z" fill="#12aab5" stroke="none" transform="rotate(180,140,145)" pointer-events="all" style="fill: light-dark(rgb(18, 170, 181), rgb(14, 145, 155));"></path></g></g><g data-cell-id="887"><g transform="translate(0.5,0.5)"><path d="M 110 130 L 200 130 L 200 130 L 210 145 L 200 160 L 200 160 L 110 160 L 110 145 Z" fill="#e8edf0" stroke="none" pointer-events="all" style="fill: light-dark(rgb(232, 237, 240), rgb(30, 35, 37));"></path></g></g><g data-cell-id="888"><g transform="translate(0.5,0.5)"><path d="M 100 130 L 190 130 L 190 130 L 200 145 L 190 160 L 190 160 L 100 160 L 100 145 Z" fill="#e8edf0" stroke="none" transform="rotate(180,150,145)" pointer-events="all" style="fill: light-dark(rgb(232, 237, 240), rgb(30, 35, 37));"></path></g><g><g><switch><foreignObject style="overflow: visible; text-align: left;" pointer-events="none" width="100%" height="100%" requiredFeatures="http://www.w3.org/TR/SVG11/feature#Extensibility"><div xmlns="http://www.w3.org/1999/xhtml" style="display: flex; align-items: unsafe center; justify-content: unsafe center; width: 1px; height: 1px; padding-top: 145px; margin-left: 155px;"><div style="box-sizing: border-box; font-size: 0; text-align: center; color: #23445D; "><div style="display: inline-block; font-size: 12px; font-family: Helvetica; color: light-dark(#23445D, #a0bcd2); line-height: 1.2; pointer-events: all; white-space: nowrap; ">Aspect</div></div></div></foreignObject><text x="155" y="149" fill="#23445D" font-family="Helvetica" font-size="12px" text-anchor="middle">Aspect</text></switch></g></g></g></g><g data-cell-id="889"><g transform="translate(0.5,0.5)"></g><g data-cell-id="890"><g transform="translate(0.5,0.5)"><path d="M 210 87 L 300 87 L 300 87 L 310 102 L 300 117 L 300 117 L 210 117 L 210 102 Z" fill="#f08e81" stroke="none" pointer-events="all" style="fill: light-dark(rgb(240, 142, 129), rgb(165, 81, 70));"></path></g><g><g><switch><foreignObject style="overflow: visible; text-align: left;" pointer-events="none" width="100%" height="100%" requiredFeatures="http://www.w3.org/TR/SVG11/feature#Extensibility"><div xmlns="http://www.w3.org/1999/xhtml" style="display: flex; align-items: unsafe center; justify-content: unsafe center; width: 1px; height: 1px; padding-top: 102px; margin-left: 260px;"><div style="box-sizing: border-box; font-size: 0; text-align: center; color: #FFFFFF; "><div style="display: inline-block; font-size: 12px; font-family: Helvetica; color: light-dark(#FFFFFF, #121212); line-height: 1.2; pointer-events: all; white-space: nowrap; ">Disadvantage</div></div></div></foreignObject><text x="260" y="106" fill="#FFFFFF" font-family="Helvetica" font-size="12px" text-anchor="middle">Disadvantage</text></switch></g></g></g><g data-cell-id="891"><g transform="translate(0.5,0.5)"><path d="M 120 87 L 210 87 L 210 87 L 220 102 L 210 117 L 210 117 L 120 117 L 120 102 Z" fill="#e85642" stroke="none" pointer-events="all" style="fill: light-dark(rgb(232, 86, 66), rgb(237, 112, 95));"></path></g></g><g data-cell-id="892"><g transform="translate(0.5,0.5)"><path d="M 0 87 L 90 87 L 90 87 L 100 102 L 90 117 L 90 117 L 0 117 L 0 102 Z" fill="#61c6ce" stroke="none" transform="rotate(180,50,102)" pointer-events="all" style="fill: light-dark(rgb(97, 198, 206), rgb(16, 103, 110));"></path></g><g><g><switch><foreignObject style="overflow: visible; text-align: left;" pointer-events="none" width="100%" height="100%" requiredFeatures="http://www.w3.org/TR/SVG11/feature#Extensibility"><div xmlns="http://www.w3.org/1999/xhtml" style="display: flex; align-items: unsafe center; justify-content: unsafe center; width: 1px; height: 1px; padding-top: 102px; margin-left: 50px;"><div style="box-sizing: border-box; font-size: 0; text-align: center; color: #FFFFFF; "><div style="display: inline-block; font-size: 12px; font-family: Helvetica; color: light-dark(#FFFFFF, #121212); line-height: 1.2; pointer-events: all; white-space: nowrap; ">Advantage</div></div></div></foreignObject><text x="50" y="106" fill="#FFFFFF" font-family="Helvetica" font-size="12px" text-anchor="middle">Advantage</text></switch></g></g></g><g data-cell-id="893"><g transform="translate(0.5,0.5)"><path d="M 90 87 L 180 87 L 180 87 L 190 102 L 180 117 L 180 117 L 90 117 L 90 102 Z" fill="#12aab5" stroke="none" transform="rotate(180,140,102)" pointer-events="all" style="fill: light-dark(rgb(18, 170, 181), rgb(14, 145, 155));"></path></g></g><g data-cell-id="894"><g transform="translate(0.5,0.5)"><path d="M 110 87 L 200 87 L 200 87 L 210 102 L 200 117 L 200 117 L 110 117 L 110 102 Z" fill="#e8edf0" stroke="none" pointer-events="all" style="fill: light-dark(rgb(232, 237, 240), rgb(30, 35, 37));"></path></g></g><g data-cell-id="895"><g transform="translate(0.5,0.5)"><path d="M 100 87 L 190 87 L 190 87 L 200 102 L 190 117 L 190 117 L 100 117 L 100 102 Z" fill="#e8edf0" stroke="none" transform="rotate(180,150,102)" pointer-events="all" style="fill: light-dark(rgb(232, 237, 240), rgb(30, 35, 37));"></path></g><g><g><switch><foreignObject style="overflow: visible; text-align: left;" pointer-events="none" width="100%" height="100%" requiredFeatures="http://www.w3.org/TR/SVG11/feature#Extensibility"><div xmlns="http://www.w3.org/1999/xhtml" style="display: flex; align-items: unsafe center; justify-content: unsafe center; width: 1px; height: 1px; padding-top: 102px; margin-left: 155px;"><div style="box-sizing: border-box; font-size: 0; text-align: center; color: #23445D; "><div style="display: inline-block; font-size: 12px; font-family: Helvetica; color: light-dark(#23445D, #a0bcd2); line-height: 1.2; pointer-events: all; white-space: nowrap; ">Aspect</div></div></div></foreignObject><text x="155" y="106" fill="#23445D" font-family="Helvetica" font-size="12px" text-anchor="middle">Aspect</text></switch></g></g></g></g><g data-cell-id="896"><g transform="translate(0.5,0.5)"></g><g data-cell-id="897"><g transform="translate(0.5,0.5)"><path d="M 210 43 L 300 43 L 300 43 L 310 58 L 300 73 L 300 73 L 210 73 L 210 58 Z" fill="#f08e81" stroke="none" pointer-events="all" style="fill: light-dark(rgb(240, 142, 129), rgb(165, 81, 70));"></path></g><g><g><switch><foreignObject style="overflow: visible; text-align: left;" pointer-events="none" width="100%" height="100%" requiredFeatures="http://www.w3.org/TR/SVG11/feature#Extensibility"><div xmlns="http://www.w3.org/1999/xhtml" style="display: flex; align-items: unsafe center; justify-content: unsafe center; width: 1px; height: 1px; padding-top: 58px; margin-left: 260px;"><div style="box-sizing: border-box; font-size: 0; text-align: center; color: #FFFFFF; "><div style="display: inline-block; font-size: 12px; font-family: Helvetica; color: light-dark(#FFFFFF, #121212); line-height: 1.2; pointer-events: all; white-space: nowrap; ">Disadvantage</div></div></div></foreignObject><text x="260" y="62" fill="#FFFFFF" font-family="Helvetica" font-size="12px" text-anchor="middle">Disadvantage</text></switch></g></g></g><g data-cell-id="898"><g transform="translate(0.5,0.5)"><path d="M 120 43 L 210 43 L 210 43 L 220 58 L 210 73 L 210 73 L 120 73 L 120 58 Z" fill="#ffffff" stroke="none" pointer-events="all" style="fill: light-dark(rgb(255, 255, 255), rgb(18, 18, 18));"></path></g></g><g data-cell-id="899"><g transform="translate(0.5,0.5)"><path d="M 0 43 L 90 43 L 90 43 L 100 58 L 90 73 L 90 73 L 0 73 L 0 58 Z" fill="#61c6ce" stroke="none" transform="rotate(180,50,58)" pointer-events="all" style="fill: light-dark(rgb(97, 198, 206), rgb(16, 103, 110));"></path></g><g><g><switch><foreignObject style="overflow: visible; text-align: left;" pointer-events="none" width="100%" height="100%" requiredFeatures="http://www.w3.org/TR/SVG11/feature#Extensibility"><div xmlns="http://www.w3.org/1999/xhtml" style="display: flex; align-items: unsafe center; justify-content: unsafe center; width: 1px; height: 1px; padding-top: 58px; margin-left: 50px;"><div style="box-sizing: border-box; font-size: 0; text-align: center; color: #FFFFFF; "><div style="display: inline-block; font-size: 12px; font-family: Helvetica; color: light-dark(#FFFFFF, #121212); line-height: 1.2; pointer-events: all; white-space: nowrap; ">Advantage</div></div></div></foreignObject><text x="50" y="62" fill="#FFFFFF" font-family="Helvetica" font-size="12px" text-anchor="middle">Advantage</text></switch></g></g></g><g data-cell-id="900"><g transform="translate(0.5,0.5)"><path d="M 90 43 L 180 43 L 180 43 L 190 58 L 180 73 L 180 73 L 90 73 L 90 58 Z" fill="#ffffff" stroke="none" transform="rotate(180,140,58)" pointer-events="all" style="fill: light-dark(rgb(255, 255, 255), rgb(18, 18, 18));"></path></g></g><g data-cell-id="901"><g transform="translate(0.5,0.5)"><path d="M 110 43 L 200 43 L 200 43 L 210 58 L 200 73 L 200 73 L 110 73 L 110 58 Z" fill="#e8edf0" stroke="none" pointer-events="all" style="fill: light-dark(rgb(232, 237, 240), rgb(30, 35, 37));"></path></g></g><g data-cell-id="902"><g transform="translate(0.5,0.5)"><path d="M 100 43 L 190 43 L 190 43 L 200 58 L 190 73 L 190 73 L 100 73 L 100 58 Z" fill="#e8edf0" stroke="none" transform="rotate(180,150,58)" pointer-events="all" style="fill: light-dark(rgb(232, 237, 240), rgb(30, 35, 37));"></path></g><g><g><switch><foreignObject style="overflow: visible; text-align: left;" pointer-events="none" width="100%" height="100%" requiredFeatures="http://www.w3.org/TR/SVG11/feature#Extensibility"><div xmlns="http://www.w3.org/1999/xhtml" style="display: flex; align-items: unsafe center; justify-content: unsafe center; width: 1px; height: 1px; padding-top: 58px; margin-left: 155px;"><div style="box-sizing: border-box; font-size: 0; text-align: center; color: #23445D; "><div style="display: inline-block; font-size: 12px; font-family: Helvetica; color: light-dark(#23445D, #a0bcd2); line-height: 1.2; pointer-events: all; white-space: nowrap; ">Aspect</div></div></div></foreignObject><text x="155" y="62" fill="#23445D" font-family="Helvetica" font-size="12px" text-anchor="middle">Aspect</text></switch></g></g></g></g><g data-cell-id="903"><g transform="translate(0.5,0.5)"></g><g data-cell-id="904"><g transform="translate(0.5,0.5)"><path d="M 210 0 L 300 0 L 300 0 L 310 15 L 300 30 L 300 30 L 210 30 L 210 15 Z" fill="#bac8d3" stroke="none" pointer-events="all" style="fill: light-dark(rgb(186, 200, 211), rgb(57, 69, 78));"></path></g><g><g><switch><foreignObject style="overflow: visible; text-align: left;" pointer-events="none" width="100%" height="100%" requiredFeatures="http://www.w3.org/TR/SVG11/feature#Extensibility"><div xmlns="http://www.w3.org/1999/xhtml" style="display: flex; align-items: unsafe center; justify-content: unsafe center; width: 1px; height: 1px; padding-top: 15px; margin-left: 260px;"><div style="box-sizing: border-box; font-size: 0; text-align: center; color: #FFFFFF; "><div style="display: inline-block; font-size: 12px; font-family: Helvetica; color: light-dark(#FFFFFF, #121212); line-height: 1.2; pointer-events: all; white-space: nowrap; ">Disadvantage</div></div></div></foreignObject><text x="260" y="19" fill="#FFFFFF" font-family="Helvetica" font-size="12px" text-anchor="middle">Disadvantage</text></switch></g></g></g><g data-cell-id="905"><g transform="translate(0.5,0.5)"><path d="M 120 0 L 210 0 L 210 0 L 220 15 L 210 30 L 210 30 L 120 30 L 120 15 Z" fill="#e85642" stroke="none" pointer-events="all" style="fill: light-dark(rgb(232, 86, 66), rgb(237, 112, 95));"></path></g></g><g data-cell-id="906"><g transform="translate(0.5,0.5)"><path d="M 0 0 L 90 0 L 90 0 L 100 15 L 90 30 L 90 30 L 0 30 L 0 15 Z" fill="#bac8d3" stroke="none" transform="rotate(180,50,15)" pointer-events="all" style="fill: light-dark(rgb(186, 200, 211), rgb(57, 69, 78));"></path></g><g><g><switch><foreignObject style="overflow: visible; text-align: left;" pointer-events="none" width="100%" height="100%" requiredFeatures="http://www.w3.org/TR/SVG11/feature#Extensibility"><div xmlns="http://www.w3.org/1999/xhtml" style="display: flex; align-items: unsafe center; justify-content: unsafe center; width: 1px; height: 1px; padding-top: 15px; margin-left: 50px;"><div style="box-sizing: border-box; font-size: 0; text-align: center; color: #FFFFFF; "><div style="display: inline-block; font-size: 12px; font-family: Helvetica; color: light-dark(#FFFFFF, #121212); line-height: 1.2; pointer-events: all; white-space: nowrap; ">Advantage</div></div></div></foreignObject><text x="50" y="19" fill="#FFFFFF" font-family="Helvetica" font-size="12px" text-anchor="middle">Advantage</text></switch></g></g></g><g data-cell-id="907"><g transform="translate(0.5,0.5)"><path d="M 90 0 L 180 0 L 180 0 L 190 15 L 180 30 L 180 30 L 90 30 L 90 15 Z" fill="#12aab5" stroke="none" transform="rotate(180,140,15)" pointer-events="all" style="fill: light-dark(rgb(18, 170, 181), rgb(14, 145, 155));"></path></g></g><g data-cell-id="908"><g transform="translate(0.5,0.5)"><path d="M 110 0 L 200 0 L 200 0 L 210 15 L 200 30 L 200 30 L 110 30 L 110 15 Z" fill="#e8edf0" stroke="none" pointer-events="all" style="fill: light-dark(rgb(232, 237, 240), rgb(30, 35, 37));"></path></g></g><g data-cell-id="909"><g transform="translate(0.5,0.5)"><path d="M 100 0 L 190 0 L 190 0 L 200 15 L 190 30 L 190 30 L 100 30 L 100 15 Z" fill="#e8edf0" stroke="none" transform="rotate(180,150,15)" pointer-events="all" style="fill: light-dark(rgb(232, 237, 240), rgb(30, 35, 37));"></path></g><g><g><switch><foreignObject style="overflow: visible; text-align: left;" pointer-events="none" width="100%" height="100%" requiredFeatures="http://www.w3.org/TR/SVG11/feature#Extensibility"><div xmlns="http://www.w3.org/1999/xhtml" style="display: flex; align-items: unsafe center; justify-content: unsafe center; width: 1px; height: 1px; padding-top: 15px; margin-left: 155px;"><div style="box-sizing: border-box; font-size: 0; text-align: center; color: #23445D; "><div style="display: inline-block; font-size: 12px; font-family: Helvetica; color: light-dark(#23445D, #a0bcd2); line-height: 1.2; pointer-events: all; white-space: nowrap; ">Aspect</div></div></div></foreignObject><text x="155" y="19" fill="#23445D" font-family="Helvetica" font-size="12px" text-anchor="middle">Aspect</text></switch></g></g></g></g></g></g></g><switch><g requiredFeatures="http://www.w3.org/TR/SVG11/feature#Extensibility"></g><a transform="translate(0,-5)" xlink:href="https://www.drawio.com/doc/faq/svg-export-text-problems" target="_blank"><text text-anchor="middle" font-size="10px" x="50%" y="100%">Text is not SVG - cannot display</text></a></switch></svg>